<?xml version="1.0" standalone="no"?>
<!DOCTYPE svg PUBLIC "-//W3C//DTD SVG 1.1//EN" "http://www.w3.org/Graphics/SVG/1.1/DTD/svg11.dtd" >
<!--
Created with mf2outline.
-->
<svg xmlns="http://www.w3.org/2000/svg" xmlns:xlink="http://www.w3.org/1999/xlink" version="1.1">
<metadata>
Created by FontForge 20201107 at Tue Jan 30 22:06:52 2024
 By 
Copyright (c) 2024, Metaflop (http://www.metaflop.com), Simon Egli, Marco Mueller, Alexis Reigel, with Reserved Font Name Bespoke. Dual licensed under the GPL v3 (http://www.gnu.org/copyleft/gpl.html) and the OFL v1.1 (http://scripts.sil.org/OFL_web).
</metadata>
<defs>
<font id="Bespoke-FA76vpxgIc" horiz-adv-x="665" >
  <font-face 
    font-family="Bespoke"
    font-weight="500"
    font-stretch="normal"
    units-per-em="1000"
    panose-1="2 0 5 3 0 0 0 0 0 0"
    ascent="800"
    descent="-200"
    x-height="585"
    cap-height="900"
    bbox="-301 -327 1830 1188"
    underline-thickness="50"
    underline-position="-100"
    unicode-range="U+0020-FB04"
  />
    <missing-glyph />
    <glyph glyph-name="fi" unicode="fi" horiz-adv-x="658" 
d="M1082 960c63 0 112 -19 112 -74c0 -22 -7 -47 -20 -73l-115 -25c7 15 11 29 11 42c0 27 -23 40 -56 40c-94 0 -178 -86 -220 -143l-107 -142h326l-439 -585h-99l371 495h-227l-371 -495h-99l371 495h-109l67 90h110l107 142c47 62 107 127 184 173c72 43 144 60 203 60z
" />
    <glyph glyph-name="guillemotright" unicode="&#x3e;&#x3e;" horiz-adv-x="658" 
d="M548 292l-330 -292h-155l330 292l109 293h155zM814 292l-330 -292h-155l330 292l109 293h155z" />
    <glyph glyph-name="guillemotleft" unicode="&#x3c;&#x3c;" horiz-adv-x="658" 
d="M437 292l-108 -292h-155l108 292l331 293h155zM703 292l-108 -292h-155l108 292l331 293h155z" />
    <glyph glyph-name="quotedblright" unicode="&#x2019;&#x2019;" horiz-adv-x="644" 
d="M559 608l320 292h110l-349 -292h-81zM1104 900h143l-354 -292h-105z" />
    <glyph glyph-name="exclamdown" unicode="&#x21;&#x2018;" horiz-adv-x="407" 
d="M-71 -300l500 666h99l-500 -666h-99zM579 501c-19 0 -35 5 -35 22c0 12 8 28 19 43c22 29 65 64 113 64c19 0 36 -5 36 -22c0 -12 -9 -27 -20 -42c-22 -29 -65 -65 -113 -65z" />
    <glyph glyph-name="fl" unicode="fl" horiz-adv-x="693" 
d="M411 495l67 90h110l161 214c33 44 76 88 130 119c52 31 104 42 146 42c38 0 69 -9 80 -33l-120 -76c0 13 -12 19 -28 19c-47 0 -88 -43 -109 -71l-161 -214h112l-68 -90h-111l-371 -495h-99l371 495h-110zM510 0l712 950h100l-713 -950h-99z" />
    <glyph glyph-name="questiondown" unicode="&#x3f;&#x2018;" horiz-adv-x="602" 
d="M110 -310c-75 0 -135 21 -135 87c0 51 36 117 84 181c54 72 125 145 214 197c65 38 129 59 187 67l108 144h99l-173 -231h-50c-43 0 -96 -14 -148 -46c-58 -36 -103 -84 -138 -131c-33 -44 -59 -90 -59 -125c0 -39 34 -53 79 -53c43 0 96 14 148 46c5 3 10 6 15 10
l35 -60c-9 -6 -18 -11 -27 -16c-85 -50 -170 -70 -239 -70zM719 501c-19 0 -36 5 -36 22c0 12 9 28 20 43c22 29 64 64 112 64c19 0 36 -5 36 -22c0 -12 -8 -27 -19 -42c-22 -29 -65 -65 -113 -65z" />
    <glyph glyph-name="endash" unicode="&#x2d;&#x2d;" horiz-adv-x="658" 
d="M228 248l67 89h574l-67 -89h-574z" />
    <glyph glyph-name="emdash" unicode="&#x2013;&#x2d;" horiz-adv-x="1148" 
d="M228 248l67 89h1064l-67 -89h-1064z" />
    <glyph glyph-name="quotedblleft" unicode="&#x2018;&#x2018;" horiz-adv-x="644" 
d="M545 608l349 292h80l-320 -292h-109zM1123 900h105l-316 -292h-143z" />
    <glyph glyph-name="ring" unicode="&#x2da;" horiz-adv-x="294" 
d="M834 849c0 16 -16 21 -34 21c-45 0 -86 -32 -107 -60c-11 -14 -18 -28 -18 -39c0 -16 17 -21 35 -21c45 0 85 32 106 60c11 14 18 28 18 39zM664 690c-38 0 -72 9 -72 43c0 22 14 49 35 77c25 33 59 66 100 89c43 24 83 31 117 31c38 0 73 -9 73 -43
c0 -22 -14 -49 -35 -77c-25 -33 -59 -66 -100 -89c-43 -24 -84 -31 -118 -31z" />
    <glyph glyph-name="rcaron" unicode="&#x159;" horiz-adv-x="413" 
d="M573 520c67 47 142 75 199 75c37 0 69 -7 91 -22l-103 -86c-12 12 -32 18 -56 18c-123 0 -235 -122 -290 -196l-231 -309h-99l439 585h99zM1042 892h74l-255 -180h-99l15 180h74l7 -119z" />
    <glyph glyph-name="Eng" unicode="&#x14a;" horiz-adv-x="875" 
d="M332 -310c-63 0 -122 15 -122 72c0 13 3 26 8 41l121 36c-3 -8 -4 -14 -4 -20c0 -29 28 -39 64 -39c31 0 68 8 106 29c37 21 68 51 91 81l82 110h-1l89 759l-569 -759h-99l675 900h100l-89 -759l569 759h99l-758 -1010c-41 -55 -98 -110 -166 -148
c-71 -39 -139 -52 -196 -52z" />
    <glyph glyph-name="Q" unicode="Q" horiz-adv-x="980" 
d="M1277 706c0 84 -75 114 -172 114c-91 0 -204 -28 -315 -96c-121 -74 -216 -175 -290 -274c-68 -91 -122 -184 -122 -256c0 -84 75 -114 172 -114c57 0 122 11 190 36l-49 158h183l24 -77c106 71 190 163 257 253c68 91 122 184 122 256zM482 -10c-127 0 -228 37 -228 148
c0 88 62 201 146 312c93 124 215 249 367 340c144 86 287 120 405 120c127 0 229 -37 229 -148c0 -88 -63 -201 -147 -312c-86 -115 -197 -232 -335 -321l40 -129h-183l-15 47c-100 -40 -196 -57 -279 -57z" />
    <glyph glyph-name="Abreve" unicode="&#x102;" horiz-adv-x="777" 
d="M14 0l999 900h100l-350 -900h-106l85 218h-349l-242 -218h-137zM932 972c-58 0 -121 10 -121 64c0 26 16 60 41 94h80c-11 -15 -18 -29 -18 -41c0 -33 44 -37 78 -37c31 0 65 4 103 21c29 13 57 34 74 57h79c-34 -45 -83 -89 -139 -117c-65 -32 -125 -41 -177 -41z
M777 308l153 393l-437 -393h284z" />
    <glyph glyph-name="i" unicode="i" horiz-adv-x="266" 
d="M84 0l438 585h99l-439 -585h-98zM674 713c-20 0 -37 5 -37 23c0 12 8 28 20 44c23 31 67 67 117 67c20 0 37 -5 37 -23c0 -12 -8 -28 -20 -44c-23 -31 -67 -67 -117 -67z" />
    <glyph glyph-name="quoteright" unicode="&#x2019;" horiz-adv-x="357" 
d="M837 900h143l-354 -292h-106z" />
    <glyph glyph-name="Gbreve" unicode="&#x11e;" horiz-adv-x="1001" 
d="M378 194c0 -84 75 -114 172 -114c88 0 191 18 300 77c102 55 188 137 250 219l22 29h-328l67 90h427l-371 -495h-99l117 156c-31 -24 -64 -46 -98 -66c-127 -74 -252 -100 -355 -100c-127 0 -228 37 -228 148c0 88 62 201 146 312c93 124 215 249 367 340
c144 86 287 120 405 120c127 0 229 -37 229 -148c0 -22 -4 -45 -11 -69l-122 -42c5 19 9 38 9 55c0 84 -75 114 -172 114c-91 0 -204 -28 -315 -96c-121 -74 -216 -175 -290 -274c-68 -91 -122 -184 -122 -256zM1034 972c-58 0 -121 10 -121 64c0 26 16 60 41 94h79
c-11 -15 -17 -29 -17 -41c0 -33 44 -37 78 -37c31 0 65 4 103 21c29 13 57 34 74 57h79c-34 -45 -83 -89 -139 -117c-65 -32 -125 -41 -177 -41z" />
    <glyph glyph-name="Ohungarumlaut" unicode="&#x150;" horiz-adv-x="980" 
d="M867 967l248 180h100l-274 -180h-74zM1325 1147h100l-274 -180h-74zM1277 706c0 84 -75 114 -172 114c-91 0 -204 -28 -315 -96c-121 -74 -216 -175 -290 -274c-68 -91 -122 -184 -122 -256c0 -84 75 -114 172 -114c91 0 204 28 315 96c121 74 216 175 290 274
c68 91 122 184 122 256zM482 -10c-127 0 -228 37 -228 148c0 88 62 201 146 312c93 124 215 249 367 340c144 86 287 120 405 120c127 0 229 -37 229 -148c0 -88 -63 -201 -147 -312c-93 -124 -214 -249 -366 -340c-144 -86 -288 -120 -406 -120z" />
    <glyph glyph-name="racute" unicode="&#x155;" horiz-adv-x="413" 
d="M573 520c67 47 142 75 199 75c37 0 69 -7 91 -22l-103 -86c-12 12 -32 18 -56 18c-123 0 -235 -122 -290 -196l-231 -309h-99l439 585h99zM1013 892h99l-285 -180h-73z" />
    <glyph glyph-name="udieresis" unicode="&#xfc;" 
d="M304 132c0 -41 39 -52 85 -52c42 0 92 10 143 39s93 72 124 113l265 353h99l-439 -585h-99l42 57c-68 -44 -144 -67 -202 -67c-75 0 -143 17 -143 85c0 44 30 101 72 157l265 353h99l-265 -353c-27 -36 -46 -72 -46 -100zM744 713c-20 0 -37 5 -37 23c0 12 8 28 20 44
c23 31 67 67 117 67c20 0 37 -5 37 -23c0 -12 -8 -28 -20 -44c-23 -31 -67 -67 -117 -67zM996 713c-20 0 -37 5 -37 23c0 12 8 28 20 44c23 31 67 67 117 67c20 0 37 -5 37 -23c0 -12 -8 -28 -20 -44c-23 -31 -67 -67 -117 -67z" />
    <glyph glyph-name="slash" unicode="/" horiz-adv-x="525" 
d="M-6 -45l1064 990h148l-1065 -990h-147z" />
    <glyph glyph-name="asciitilde" unicode="~" horiz-adv-x="686" 
d="M424 276c-49 0 -93 -41 -115 -71h-99c33 44 77 88 131 119s106 42 150 42c87 0 123 -57 210 -57c49 0 93 41 115 71h99c-33 -44 -77 -88 -131 -119s-106 -42 -150 -42c-87 0 -123 57 -210 57z" />
    <glyph glyph-name="section" unicode="&#xa7;" 
d="M96 -310c-75 0 -143 17 -143 85c0 6 1 12 2 18l124 51c-1 -4 -1 -8 -1 -12c0 -41 41 -52 86 -52c41 0 91 9 142 38c50 28 92 70 122 110c26 34 44 68 44 95c0 41 -42 52 -87 52c-67 0 -125 14 -142 59c-3 8 -5 16 -5 25c0 40 26 90 64 141c61 81 152 159 263 198
c-19 11 -34 29 -34 58c0 33 18 74 50 116c49 65 117 131 198 176c84 47 165 62 233 62c75 0 143 -17 143 -85c0 -6 0 -12 -1 -18l-125 -50c1 4 1 8 1 12c0 41 -41 51 -86 51c-41 0 -91 -9 -142 -38c-50 -28 -92 -70 -122 -110c-26 -34 -44 -68 -44 -95c0 -41 42 -52 87 -52
c67 0 125 -14 142 -59c3 -8 5 -16 5 -25c0 -40 -26 -90 -64 -141c-61 -81 -152 -159 -263 -198c19 -11 34 -29 34 -58c0 -33 -18 -74 -50 -116c-49 -65 -117 -131 -198 -176c-84 -47 -165 -62 -233 -62zM745 384c0 42 -45 51 -90 51c-41 0 -88 -8 -139 -35
c-47 -25 -87 -62 -115 -100c-23 -30 -38 -60 -38 -84c0 -42 45 -51 90 -51c41 0 88 8 139 35c47 25 87 62 115 100c23 30 38 60 38 84z" />
    <glyph glyph-name="guilsinglright" unicode="&#x203a;" horiz-adv-x="385" 
d="M541 292l-324 -292h-154l324 292l115 293h154z" />
    <glyph glyph-name="Edieresis" unicode="&#xcb;" horiz-adv-x="651" 
d="M98 0l675 900h504l-68 -90h-405l-236 -315h356l-68 -90h-355l-237 -315h406l-68 -90h-504zM765 969c-20 0 -37 5 -37 23c0 12 8 28 20 44c23 31 67 66 117 66c20 0 37 -4 37 -22c0 -12 -8 -28 -20 -44c-23 -31 -67 -67 -117 -67zM1017 969c-20 0 -37 5 -37 23
c0 12 8 28 20 44c23 31 67 66 117 66c20 0 37 -4 37 -22c0 -12 -8 -28 -20 -44c-23 -31 -67 -67 -117 -67z" />
    <glyph glyph-name="eng" unicode="&#x14b;" 
d="M177 -310c-53 0 -94 16 -94 62c0 15 4 33 12 51l118 31c-4 -9 -6 -18 -6 -26c0 -18 14 -28 37 -28c69 0 131 69 162 110c116 154 232 309 348 463c29 39 52 78 52 109c0 30 -25 43 -61 43c-49 0 -104 -8 -165 -39c-53 -27 -100 -69 -132 -112l-265 -354h-99l439 585h99
l-49 -65c7 4 13 8 20 12c79 46 156 63 220 63c66 0 118 -20 118 -77c0 -46 -34 -106 -78 -165c-116 -154 -232 -309 -348 -463c-40 -54 -91 -108 -157 -148c-61 -37 -121 -52 -171 -52z" />
    <glyph glyph-name="r" unicode="r" horiz-adv-x="413" 
d="M573 520c67 47 142 75 199 75c37 0 69 -7 91 -22l-103 -86c-12 12 -32 18 -56 18c-123 0 -235 -122 -290 -196l-231 -309h-99l439 585h99z" />
    <glyph glyph-name="u" unicode="u" 
d="M304 132c0 -41 39 -52 85 -52c42 0 92 10 143 39s93 72 124 113l265 353h99l-439 -585h-99l42 57c-68 -44 -144 -67 -202 -67c-75 0 -143 17 -143 85c0 44 30 101 72 157l265 353h99l-265 -353c-27 -36 -46 -72 -46 -100z" />
    <glyph glyph-name="Odieresis" unicode="&#xd6;" horiz-adv-x="980" 
d="M905 969c-20 0 -37 5 -37 23c0 12 8 28 20 44c23 31 67 66 117 66c20 0 37 -4 37 -22c0 -12 -8 -28 -20 -44c-23 -31 -67 -67 -117 -67zM1157 969c-20 0 -37 5 -37 23c0 12 8 28 20 44c23 31 67 66 117 66c20 0 37 -4 37 -22c0 -12 -8 -28 -20 -44
c-23 -31 -67 -67 -117 -67zM1277 706c0 84 -75 114 -172 114c-91 0 -204 -28 -315 -96c-121 -74 -216 -175 -290 -274c-68 -91 -122 -184 -122 -256c0 -84 75 -114 172 -114c91 0 204 28 315 96c121 74 216 175 290 274c68 91 122 184 122 256zM482 -10
c-127 0 -228 37 -228 148c0 88 62 201 146 312c93 124 215 249 367 340c144 86 287 120 405 120c127 0 229 -37 229 -148c0 -88 -63 -201 -147 -312c-93 -124 -214 -249 -366 -340c-144 -86 -288 -120 -406 -120z" />
    <glyph glyph-name="Zdotaccent" unicode="&#x17b;" horiz-adv-x="714" 
d="M642 810l68 90h644l-75 -100l-1016 -710h483l-67 -90h-644l75 100l1016 710h-484zM898 969c-20 0 -37 5 -37 23c0 12 8 28 20 44c23 31 67 66 117 66c20 0 37 -4 37 -22c0 -12 -8 -28 -20 -44c-23 -31 -67 -67 -117 -67z" />
    <glyph glyph-name="Igrave" unicode="&#xcc;" horiz-adv-x="323" 
d="M112 0l675 900h99l-675 -900h-99zM672 1147h98l-11 -180h-73z" />
    <glyph glyph-name="P" unicode="P" horiz-adv-x="714" 
d="M1041 900c91 0 175 -20 175 -103c0 -51 -34 -118 -84 -184c-59 -79 -141 -158 -239 -212c-102 -56 -200 -75 -282 -75h-169l-245 -326h-99l675 900h268zM1091 740c0 56 -56 70 -117 70h-170l-295 -394h169c56 0 123 13 192 51c67 37 122 92 163 146c34 46 58 91 58 127z
" />
    <glyph glyph-name="tcaron" unicode="&#x165;" horiz-adv-x="378" 
d="M383 495l67 90h128l274 365h99l-274 -365h128l-67 -90h-128l-372 -495h-98l371 495h-128zM1138 950h143l-354 -292h-106z" />
    <glyph glyph-name="Scedilla" unicode="&#x15e;" horiz-adv-x="728" 
d="M297 147c0 -57 63 -67 123 -67c55 0 118 6 187 41c60 30 110 80 146 128c23 30 33 58 33 81c0 25 -13 43 -38 52l-142 54c-48 17 -75 52 -75 99c0 35 16 77 50 123c53 71 122 142 209 190c92 50 179 62 253 62c81 0 157 -18 157 -92c0 -22 -7 -47 -19 -73l-119 -31
c8 17 13 33 13 47c0 47 -47 59 -99 59c-48 0 -103 -8 -162 -40c-56 -31 -100 -77 -134 -122c-20 -26 -29 -51 -29 -71c0 -29 17 -50 47 -61l143 -54c43 -15 66 -47 66 -90c0 -38 -18 -83 -55 -133c-55 -73 -131 -148 -222 -195c-92 -48 -175 -62 -250 -64l-44 -44
c43 -2 87 -13 87 -55c0 -23 -14 -51 -36 -81c-29 -39 -72 -78 -120 -102c-56 -28 -107 -35 -152 -35c-50 0 -103 8 -103 55c0 12 4 26 11 40l93 22c-3 -6 -4 -12 -4 -17c0 -23 30 -28 57 -28c24 0 51 3 80 17c23 11 45 29 59 48c10 13 15 26 15 36c0 25 -31 28 -57 28h-73
l115 118c-61 5 -112 23 -130 65c-4 10 -6 21 -6 33c0 24 7 50 21 79l116 27c-8 -18 -12 -34 -12 -49z" />
    <glyph glyph-name="b" unicode="b" horiz-adv-x="721" 
d="M370 -10c-69 0 -117 26 -117 84c0 4 1 8 1 12l-64 -86h-99l713 950h98l-338 -451c8 6 17 11 26 17c82 53 166 79 234 79c85 0 156 -24 156 -99c0 -57 -41 -131 -96 -204c-61 -82 -142 -164 -242 -223c-97 -57 -193 -79 -272 -79zM855 440c0 48 -42 65 -98 65
c-52 0 -117 -16 -181 -55c-69 -42 -124 -101 -167 -158c-39 -52 -69 -106 -69 -147c0 -48 42 -65 98 -65c52 0 117 16 181 55c69 42 123 100 166 157c39 52 70 107 70 148z" />
    <glyph glyph-name="Yacute" unicode="&#xdd;" horiz-adv-x="728" 
d="M682 900h101l-80 -412l538 412h155l-723 -553l-259 -347h-100l260 347zM1105 1147h99l-284 -180h-74z" />
    <glyph glyph-name="ecircumflex" unicode="&#xea;" horiz-adv-x="693" 
d="M306 148c0 -51 46 -68 104 -68c52 0 112 10 177 44c21 11 42 25 61 40l53 -47c-28 -22 -58 -42 -90 -59c-98 -52 -190 -68 -269 -68c-88 0 -160 23 -160 101c0 56 39 129 93 201c62 82 144 165 245 224c99 58 196 79 276 79c88 0 161 -23 161 -101
c0 -56 -40 -130 -94 -202l-33 -44h-487c-22 -36 -37 -71 -37 -100zM833 437c0 51 -46 68 -104 68c-54 0 -120 -15 -186 -55c-52 -31 -95 -71 -132 -113h384c22 36 38 71 38 100zM979 831l-185 -119h-73l254 180h99l-15 -180h-73z" />
    <glyph glyph-name="ocircumflex" unicode="&#xf4;" horiz-adv-x="700" 
d="M833 437c0 51 -46 68 -104 68c-54 0 -120 -15 -186 -55c-70 -42 -126 -101 -169 -158c-39 -52 -68 -103 -68 -144c0 -51 46 -68 104 -68c54 0 120 15 186 55c70 42 125 100 168 157c39 52 69 104 69 145zM342 -10c-88 0 -160 23 -160 101c0 56 39 129 93 201
c62 82 144 165 245 224c99 58 196 79 276 79c88 0 161 -23 161 -101c0 -56 -40 -130 -94 -202c-62 -82 -143 -164 -244 -223c-99 -58 -197 -79 -277 -79zM979 831l-185 -119h-73l254 180h99l-15 -180h-73z" />
    <glyph glyph-name="eogonek" unicode="&#x119;" horiz-adv-x="693" 
d="M306 148c0 -51 46 -68 104 -68c52 0 112 10 177 44c21 11 42 25 61 40l53 -47c-28 -22 -58 -42 -90 -59c-89 -48 -174 -65 -248 -68l-161 -98c-42 -27 -91 -47 -117 -82c-10 -13 -16 -27 -16 -37c0 -25 32 -28 58 -28c24 0 50 3 79 17c8 4 15 8 22 13l24 -51
c-9 -6 -18 -11 -27 -16c-56 -28 -107 -35 -152 -35c-50 0 -104 8 -104 55c0 23 14 52 36 82c50 67 146 103 225 154l51 31c-57 10 -99 36 -99 96c0 56 39 129 93 201c62 82 144 165 245 224c99 58 196 79 276 79c88 0 161 -23 161 -101c0 -56 -40 -130 -94 -202l-33 -44
h-487c-22 -36 -37 -71 -37 -100zM833 437c0 51 -46 68 -104 68c-54 0 -120 -15 -186 -55c-52 -31 -95 -71 -132 -113h384c22 36 38 71 38 100z" />
    <glyph glyph-name="ffi" unicode="&#xfb03;" horiz-adv-x="973" 
d="M1403 960c61 0 108 -19 108 -72c0 -22 -9 -48 -22 -75l-114 -24c8 16 12 31 12 44c0 25 -21 37 -52 37c-91 0 -173 -88 -214 -143l-107 -142h314l-439 -585h-99l371 495h-215l-371 -495h-99l371 495h-228l-371 -495h-99l371 495h-109l67 90h109l139 185
c38 50 86 102 147 141c54 34 109 49 154 49c49 0 81 -19 81 -58c0 -7 -1 -13 -3 -21l-122 -44c1 4 2 8 2 12c0 13 -9 21 -25 21c-18 0 -43 -10 -64 -26c-30 -22 -52 -48 -71 -74l-139 -185h229l107 142c47 62 107 127 183 173c70 43 141 60 198 60z" />
    <glyph glyph-name="plus" unicode="+" horiz-adv-x="686" 
d="M732 585h99l-185 -248h237l-67 -89h-238l-186 -248h-98l185 248h-237l67 89h238z" />
    <glyph glyph-name="Eogonek" unicode="&#x118;" horiz-adv-x="651" 
d="M292 -327c-50 0 -103 8 -103 55c0 23 14 52 36 82c50 67 146 103 225 154l59 36h-411l675 900h504l-68 -90h-405l-236 -315h356l-68 -90h-355l-237 -315h406l-68 -90h-3l-177 -108c-42 -27 -92 -47 -118 -82c-10 -13 -15 -27 -15 -37c0 -25 31 -28 57 -28
c24 0 51 3 80 17c8 4 15 8 22 13l24 -51c-9 -6 -19 -11 -28 -16c-56 -28 -107 -35 -152 -35z" />
    <glyph glyph-name="R" unicode="R" horiz-adv-x="707" 
d="M98 0l675 900h268c82 0 153 -16 174 -70c4 -10 5 -21 5 -32c0 -47 -31 -107 -76 -168c-83 -110 -213 -216 -372 -254l-72 -376h-100l70 361c-11 -1 -23 -1 -34 -1h-169l-270 -360h-99zM1095 742c0 56 -60 68 -121 68h-170l-270 -360h170c55 0 119 11 188 47
c62 33 115 83 153 133c30 40 50 81 50 112z" />
    <glyph glyph-name="ecaron" unicode="&#x11b;" horiz-adv-x="693" 
d="M306 148c0 -51 46 -68 104 -68c52 0 112 10 177 44c21 11 42 25 61 40l53 -47c-28 -22 -58 -42 -90 -59c-98 -52 -190 -68 -269 -68c-88 0 -160 23 -160 101c0 56 39 129 93 201c62 82 144 165 245 224c99 58 196 79 276 79c88 0 161 -23 161 -101
c0 -56 -40 -130 -94 -202l-33 -44h-487c-22 -36 -37 -71 -37 -100zM1121 892h73l-254 -180h-100l16 180h73l7 -119zM833 437c0 51 -46 68 -104 68c-54 0 -120 -15 -186 -55c-52 -31 -95 -71 -132 -113h384c22 36 38 71 38 100z" />
    <glyph glyph-name="V" unicode="V" horiz-adv-x="736" 
d="M686 900h107l-279 -683l745 683h141l-982 -900h-100z" />
    <glyph glyph-name="AE" unicode="&#xc6;" horiz-adv-x="1127" 
d="M14 0l1164 900h575l-68 -90h-426l-236 -315h353l-68 -90h-353l-236 -315h426l-67 -90h-526l220 292h-233l-378 -292h-147zM656 382h183l254 338z" />
    <glyph glyph-name="bracketright" unicode="]" horiz-adv-x="392" 
d="M751 945h224l-934 -1245h-224l67 90h126l798 1065h-125z" />
    <glyph glyph-name="H" unicode="H" horiz-adv-x="840" 
d="M98 0l675 900h99l-304 -405h446l304 405h99l-675 -900h-99l304 405h-446l-304 -405h-99z" />
    <glyph glyph-name="exclam" unicode="!" horiz-adv-x="407" 
d="M352 264l477 636h99l-477 -636h-99zM204 0c-19 0 -36 5 -36 22c0 12 8 27 19 42c22 29 65 65 113 65c19 0 36 -5 36 -22c0 -12 -9 -28 -20 -43c-22 -29 -64 -64 -112 -64z" />
    <glyph glyph-name="Aogonek" unicode="&#x104;" horiz-adv-x="777" 
d="M449 -327c-50 0 -103 8 -103 55c0 23 14 52 36 82c50 67 146 103 225 154l59 36h-9l85 218h-349l-242 -218h-137l999 900h100l-350 -900h-7l-178 -108c-42 -27 -91 -47 -117 -82c-10 -13 -15 -27 -15 -37c0 -25 31 -28 57 -28c24 0 51 3 80 17c8 4 15 8 22 13l24 -51
c-9 -6 -19 -11 -28 -16c-56 -28 -107 -35 -152 -35zM777 308l153 393l-437 -393h284z" />
    <glyph glyph-name="L" unicode="L" horiz-adv-x="644" 
d="M98 0l675 900h99l-608 -810h406l-68 -90h-504z" />
    <glyph glyph-name="comma" unicode="," horiz-adv-x="329" 
d="M191 117h157l-365 -293h-116z" />
    <glyph glyph-name="ydieresis" unicode="&#xff;" horiz-adv-x="588" 
d="M446 585h104l-131 -389l453 389h148l-1030 -885h-148l430 370zM709 713c-20 0 -37 5 -37 23c0 12 8 28 20 44c23 31 67 67 117 67c20 0 37 -5 37 -23c0 -12 -8 -28 -20 -44c-23 -31 -67 -67 -117 -67zM961 713c-20 0 -37 5 -37 23c0 12 8 28 20 44c23 31 67 67 117 67
c20 0 37 -5 37 -23c0 -12 -8 -28 -20 -44c-23 -31 -67 -67 -117 -67z" />
    <glyph glyph-name="O" unicode="O" horiz-adv-x="980" 
d="M1277 706c0 84 -75 114 -172 114c-91 0 -204 -28 -315 -96c-121 -74 -216 -175 -290 -274c-68 -91 -122 -184 -122 -256c0 -84 75 -114 172 -114c91 0 204 28 315 96c121 74 216 175 290 274c68 91 122 184 122 256zM482 -10c-127 0 -228 37 -228 148
c0 88 62 201 146 312c93 124 215 249 367 340c144 86 287 120 405 120c127 0 229 -37 229 -148c0 -88 -63 -201 -147 -312c-93 -124 -214 -249 -366 -340c-144 -86 -288 -120 -406 -120z" />
    <glyph glyph-name="bar" unicode="|" horiz-adv-x="280" 
d="M57 -45l742 990h99l-742 -990h-99z" />
    <glyph glyph-name="underscore" unicode="_" horiz-adv-x="658" 
d="M-82 -165l68 90h574l-68 -90h-574z" />
    <glyph glyph-name="circumflex" unicode="&#x2c6;" horiz-adv-x="294" 
d="M776 839l-185 -119h-73l254 180h100l-16 -180h-73z" />
    <glyph glyph-name="Ecircumflex" unicode="&#xca;" horiz-adv-x="651" 
d="M98 0l675 900h504l-68 -90h-405l-236 -315h356l-68 -90h-355l-237 -315h406l-68 -90h-504zM979 1086l-185 -119h-73l254 180h99l-15 -180h-73z" />
    <glyph glyph-name="asterisk" unicode="*" horiz-adv-x="651" 
d="M764 583h-3l-198 -133h-99l237 159l-89 39l105 140l113 -49l121 161h99l-121 -161l187 49l-105 -140l-147 -39l-2 -159h-99z" />
    <glyph glyph-name="dcaron" unicode="&#x10f;" horiz-adv-x="721" 
d="M789 595c69 0 117 -26 117 -84c0 -4 -1 -8 -1 -12l338 451h99l-216 -289l313 289h143l-354 -292h-105l-493 -658h-99l64 86c-8 -6 -16 -11 -25 -17c-82 -53 -166 -79 -234 -79c-85 0 -156 24 -156 99c0 57 40 130 95 203c61 82 143 165 243 224c97 57 192 79 271 79z
M820 440c0 48 -42 65 -98 65c-52 0 -117 -16 -181 -55c-69 -42 -124 -101 -167 -158c-39 -52 -69 -106 -69 -147c0 -48 42 -65 98 -65c52 0 117 16 181 55c69 42 124 101 166 158c39 52 70 106 70 147z" />
    <glyph glyph-name="Ecaron" unicode="&#x11a;" horiz-adv-x="651" 
d="M98 0l675 900h504l-68 -90h-405l-236 -315h356l-68 -90h-355l-237 -315h406l-68 -90h-504zM1121 1147h73l-254 -180h-100l16 180h73l7 -118z" />
    <glyph glyph-name="Udieresis" unicode="&#xdc;" horiz-adv-x="832" 
d="M352 156c0 -60 58 -76 124 -76c61 0 133 15 208 58c75 42 136 103 181 163l449 599h99l-449 -599c-64 -85 -152 -171 -257 -230c-108 -61 -212 -81 -299 -81c-96 0 -181 23 -181 109c0 57 39 130 93 202l449 599h99l-449 -599c-39 -52 -67 -104 -67 -145zM831 969
c-20 0 -37 5 -37 23c0 12 8 28 20 44c23 31 67 66 117 66c20 0 37 -4 37 -22c0 -12 -8 -28 -20 -44c-23 -31 -67 -67 -117 -67zM1083 969c-20 0 -37 5 -37 23c0 12 8 28 20 44c23 31 67 66 117 66c20 0 37 -4 37 -22c0 -12 -8 -28 -20 -44c-23 -31 -67 -67 -117 -67z" />
    <glyph glyph-name="Zcaron" unicode="&#x17d;" horiz-adv-x="714" 
d="M642 810l68 90h644l-75 -100l-1016 -710h483l-67 -90h-644l75 100l1016 710h-484zM1128 1147h73l-255 -180h-99l16 180h73l7 -118z" />
    <glyph glyph-name="acute" unicode="&#xb4;" horiz-adv-x="280" 
d="M832 900h99l-284 -180h-74z" />
    <glyph glyph-name="uni1E9E" unicode="&#x1e9e;" horiz-adv-x="1358" 
d="M1071 762c0 46 -47 58 -98 58c-47 0 -101 -8 -159 -40c-56 -31 -100 -77 -134 -122c-20 -26 -29 -51 -29 -71c0 -29 18 -50 47 -61l141 -54c41 -16 63 -47 63 -89c0 -38 -18 -84 -55 -134c-55 -73 -130 -148 -221 -195c-102 -53 -193 -64 -275 -64c-80 0 -151 15 -173 67
c-4 10 -6 21 -6 33c0 24 7 50 21 79l116 27c-8 -18 -13 -35 -13 -50c0 -8 2 -15 5 -22c16 -34 63 -44 117 -44c55 0 117 6 185 41c60 31 109 80 145 128c22 30 33 58 33 81c0 25 -13 43 -37 52l-141 54c-46 18 -72 53 -72 99c0 35 16 77 50 123c53 70 122 142 209 190
c92 50 177 62 251 62c80 0 154 -18 154 -91c0 -22 -7 -47 -19 -74l-116 -27c7 16 11 31 11 44zM1705 762c0 46 -46 58 -97 58c-47 0 -102 -8 -160 -40c-56 -31 -100 -77 -134 -122c-20 -26 -28 -51 -28 -71c0 -29 18 -50 47 -61l140 -54c41 -16 64 -47 64 -89
c0 -38 -18 -84 -55 -134c-55 -73 -130 -148 -221 -195c-102 -53 -194 -64 -276 -64c-80 0 -151 15 -173 67c-4 10 -6 21 -6 33c0 24 8 50 22 79l116 27c-8 -18 -13 -35 -13 -50c0 -8 2 -15 5 -22c16 -34 63 -44 117 -44c55 0 116 6 184 41c60 31 110 80 146 128
c22 30 33 58 33 81c0 25 -13 43 -37 52l-141 54c-46 18 -73 53 -73 99c0 35 16 77 50 123c53 70 123 142 210 190c92 50 176 62 250 62c80 0 155 -18 155 -91c0 -22 -7 -47 -19 -74l-117 -27c7 16 11 31 11 44z" />
    <glyph glyph-name="Uhungarumlaut" unicode="&#x170;" horiz-adv-x="832" 
d="M352 156c0 -60 58 -76 124 -76c61 0 133 15 208 58c75 42 136 103 181 163l449 599h99l-449 -599c-64 -85 -152 -171 -257 -230c-108 -61 -212 -81 -299 -81c-96 0 -181 23 -181 109c0 57 39 130 93 202l449 599h99l-449 -599c-39 -52 -67 -104 -67 -145zM793 967
l248 180h99l-273 -180h-74zM1251 1147h99l-273 -180h-74z" />
    <glyph glyph-name="Atilde" unicode="&#xc3;" horiz-adv-x="777" 
d="M14 0l999 900h100l-350 -900h-106l85 218h-349l-242 -218h-137zM903 1018c-38 0 -72 -22 -90 -46h-79c26 35 62 69 105 93c45 25 88 33 124 33c44 0 58 -33 102 -33c38 0 72 22 90 46h79c-26 -35 -62 -69 -105 -93c-45 -25 -88 -33 -124 -33c-44 0 -58 33 -102 33z
M777 308l153 393l-437 -393h284z" />
    <glyph glyph-name="Dcaron" unicode="&#x10e;" horiz-adv-x="882" 
d="M1053 900c129 0 237 -34 237 -149c0 -84 -60 -194 -141 -301c-91 -122 -212 -246 -362 -333c-146 -85 -290 -117 -409 -117h-280l675 900h280zM1149 1147h73l-254 -180h-100l16 180h73l7 -118zM1165 694c0 88 -80 116 -180 116h-181l-540 -720h181c92 0 205 27 318 94
c119 71 214 169 287 266c65 87 115 176 115 244z" />
    <glyph glyph-name="equal" unicode="=" horiz-adv-x="686" 
d="M329 364l68 90h574l-68 -90h-574zM154 130l67 90h574l-67 -90h-574z" />
    <glyph glyph-name="C" unicode="C" horiz-adv-x="945" 
d="M378 194c0 -84 75 -114 172 -114c91 0 204 28 315 96c51 31 98 67 140 106l70 -32c-56 -52 -118 -99 -187 -140c-144 -86 -288 -120 -406 -120c-127 0 -228 37 -228 148c0 88 62 201 146 312c93 124 215 249 367 340c144 86 287 120 405 120c127 0 229 -37 229 -148
c0 -34 -9 -72 -26 -112l-118 -32c13 31 20 61 20 88c0 84 -75 114 -172 114c-91 0 -204 -28 -315 -96c-121 -74 -216 -175 -290 -274c-68 -91 -122 -184 -122 -256z" />
    <glyph glyph-name="Eth" unicode="&#xd0;" horiz-adv-x="938" 
d="M1109 900c129 0 237 -34 237 -149c0 -84 -60 -194 -141 -301c-91 -122 -212 -246 -362 -333c-146 -85 -290 -117 -409 -117h-280l304 405h-105l67 90h105l304 405h280zM1221 694c0 88 -80 116 -180 116h-181l-236 -315h258l-67 -90h-258l-237 -315h181
c92 0 205 27 318 94c119 71 214 169 287 266c65 87 115 176 115 244z" />
    <glyph glyph-name="edieresis" unicode="&#xeb;" horiz-adv-x="693" 
d="M306 148c0 -51 46 -68 104 -68c52 0 112 10 177 44c21 11 42 25 61 40l53 -47c-28 -22 -58 -42 -90 -59c-98 -52 -190 -68 -269 -68c-88 0 -160 23 -160 101c0 56 39 129 93 201c62 82 144 165 245 224c99 58 196 79 276 79c88 0 161 -23 161 -101
c0 -56 -40 -130 -94 -202l-33 -44h-487c-22 -36 -37 -71 -37 -100zM765 713c-20 0 -37 5 -37 23c0 12 8 28 20 44c23 31 67 67 117 67c20 0 37 -5 37 -23c0 -12 -8 -28 -20 -44c-23 -31 -67 -67 -117 -67zM1017 713c-20 0 -37 5 -37 23c0 12 8 28 20 44c23 31 67 67 117 67
c20 0 37 -5 37 -23c0 -12 -8 -28 -20 -44c-23 -31 -67 -67 -117 -67zM833 437c0 51 -46 68 -104 68c-54 0 -120 -15 -186 -55c-52 -31 -95 -71 -132 -113h384c22 36 38 71 38 100z" />
    <glyph glyph-name="ccaron" unicode="&#x10d;" horiz-adv-x="669" 
d="M306 148c0 -51 46 -68 104 -68c54 0 120 15 186 55c34 20 65 45 92 71l74 -28c-42 -41 -90 -78 -143 -109c-99 -58 -197 -79 -277 -79c-88 0 -160 23 -160 101c0 56 39 129 93 201c62 82 144 165 245 224c99 58 196 79 276 79c88 0 161 -23 161 -101
c0 -26 -9 -56 -23 -87l-116 -28c9 21 15 41 15 58c0 51 -46 68 -104 68c-54 0 -120 -15 -186 -55c-70 -42 -126 -101 -169 -158c-39 -52 -68 -103 -68 -144zM1121 892h73l-254 -180h-100l16 180h73l7 -119z" />
    <glyph glyph-name="cacute" unicode="&#x107;" horiz-adv-x="669" 
d="M306 148c0 -51 46 -68 104 -68c54 0 120 15 186 55c34 20 65 45 92 71l74 -28c-42 -41 -90 -78 -143 -109c-99 -58 -197 -79 -277 -79c-88 0 -160 23 -160 101c0 56 39 129 93 201c62 82 144 165 245 224c99 58 196 79 276 79c88 0 161 -23 161 -101
c0 -26 -9 -56 -23 -87l-116 -28c9 21 15 41 15 58c0 51 -46 68 -104 68c-54 0 -120 -15 -186 -55c-70 -42 -126 -101 -169 -158c-39 -52 -68 -103 -68 -144zM1091 892h99l-284 -180h-74z" />
    <glyph glyph-name="odieresis" unicode="&#xf6;" horiz-adv-x="700" 
d="M765 713c-20 0 -37 5 -37 23c0 12 8 28 20 44c23 31 67 67 117 67c20 0 37 -5 37 -23c0 -12 -8 -28 -20 -44c-23 -31 -67 -67 -117 -67zM1017 713c-20 0 -37 5 -37 23c0 12 8 28 20 44c23 31 67 67 117 67c20 0 37 -5 37 -23c0 -12 -8 -28 -20 -44
c-23 -31 -67 -67 -117 -67zM833 437c0 51 -46 68 -104 68c-54 0 -120 -15 -186 -55c-70 -42 -126 -101 -169 -158c-39 -52 -68 -103 -68 -144c0 -51 46 -68 104 -68c54 0 120 15 186 55c70 42 125 100 168 157c39 52 69 104 69 145zM342 -10c-88 0 -160 23 -160 101
c0 56 39 129 93 201c62 82 144 165 245 224c99 58 196 79 276 79c88 0 161 -23 161 -101c0 -56 -40 -130 -94 -202c-62 -82 -143 -164 -244 -223c-99 -58 -197 -79 -277 -79z" />
    <glyph glyph-name="four" unicode="4" horiz-adv-x="693" 
d="M698 225l-169 -225h-99l169 225h-384l75 100l814 575h100l-439 -585h118l-68 -90h-117zM666 315l266 355l-502 -355h236z" />
    <glyph glyph-name="adieresis" unicode="&#xe4;" horiz-adv-x="658" 
d="M761 595c77 0 151 -15 151 -86c0 -40 -26 -93 -65 -145l-273 -364h-99l33 43c-68 -39 -142 -53 -200 -53c-68 0 -131 9 -156 49c-6 9 -8 20 -8 32c0 30 16 68 45 106c41 54 103 107 171 139c85 40 160 48 228 48c58 0 109 -11 120 -53l40 53c24 31 40 64 40 88
c0 44 -47 53 -94 53c-43 0 -93 -9 -146 -37c-22 -11 -42 -25 -60 -41l-64 39c31 26 65 50 101 69c86 46 167 60 236 60zM730 713c-20 0 -37 5 -37 23c0 12 8 28 20 44c23 31 67 67 117 67c20 0 37 -5 37 -23c0 -12 -8 -28 -20 -44c-23 -31 -67 -67 -117 -67zM982 713
c-20 0 -37 5 -37 23c0 12 8 28 20 44c23 31 67 67 117 67c20 0 37 -5 37 -23c0 -12 -8 -28 -20 -44c-23 -31 -67 -67 -117 -67zM521 274c-41 0 -86 -4 -137 -25c-37 -15 -74 -42 -96 -72c-14 -18 -20 -35 -20 -49c0 -9 3 -17 8 -23c19 -21 58 -25 99 -25s86 4 137 25
c37 15 74 42 96 72c14 18 20 36 20 50c0 9 -3 16 -8 22c-19 21 -58 25 -99 25z" />
    <glyph glyph-name="Ydieresis" unicode="&#x178;" horiz-adv-x="728" 
d="M682 900h101l-80 -412l538 412h155l-723 -553l-259 -347h-100l260 347zM779 969c-20 0 -37 5 -37 23c0 12 8 28 20 44c23 31 67 66 117 66c20 0 37 -4 37 -22c0 -12 -8 -28 -20 -44c-23 -31 -67 -67 -117 -67zM1031 969c-20 0 -37 5 -37 23c0 12 8 28 20 44
c23 31 67 66 117 66c20 0 37 -4 37 -22c0 -12 -8 -28 -20 -44c-23 -31 -67 -67 -117 -67z" />
    <glyph glyph-name="Thorn" unicode="&#xde;" horiz-adv-x="728" 
d="M98 0l675 900h99l-101 -135h169c82 0 153 -16 174 -70c4 -10 5 -21 5 -32c0 -47 -31 -107 -76 -168c-56 -75 -136 -150 -229 -200c-102 -54 -197 -70 -279 -70h-169l-169 -225h-99zM994 607c0 57 -61 68 -122 68h-169l-270 -360h169c55 0 120 11 189 47
c62 33 115 83 153 133c30 40 50 81 50 112z" />
    <glyph glyph-name="cedilla" unicode="&#xb8;" horiz-adv-x="280" 
d="M103 -154c0 25 -31 28 -57 28h-74l158 162h74l-89 -90c43 -2 88 -13 88 -55c0 -23 -14 -51 -36 -81c-29 -39 -72 -78 -120 -102c-56 -28 -107 -35 -152 -35c-50 0 -103 8 -103 55c0 12 3 26 10 40l93 22c-3 -6 -4 -11 -4 -16c0 -24 30 -29 58 -29c24 0 50 3 79 17
c23 11 46 29 60 48c10 13 15 26 15 36z" />
    <glyph glyph-name="p" unicode="p" horiz-adv-x="714" 
d="M364 -10c-69 0 -118 26 -118 84c0 4 1 8 1 12l-289 -386h-99l664 885h99l-65 -86c8 6 17 11 26 17c82 53 166 79 234 79c85 0 156 -24 156 -99c0 -57 -41 -131 -96 -204c-61 -82 -142 -164 -242 -223c-97 -57 -192 -79 -271 -79zM848 440c0 48 -42 65 -98 65
c-52 0 -117 -16 -181 -55c-69 -42 -124 -101 -167 -158c-39 -52 -69 -106 -69 -147c0 -48 42 -65 98 -65c52 0 117 16 181 55c69 42 123 100 166 157c39 52 70 107 70 148z" />
    <glyph glyph-name="semicolon" unicode=";" horiz-adv-x="336" 
d="M184 117h157l-365 -293h-116zM517 456c-19 0 -36 5 -36 22c0 12 9 28 20 43c22 29 64 64 112 64c19 0 36 -5 36 -22c0 -12 -9 -27 -20 -42c-22 -29 -64 -65 -112 -65z" />
    <glyph glyph-name="Idieresis" unicode="&#xcf;" horiz-adv-x="323" 
d="M112 0l675 900h99l-675 -900h-99zM576 969c-20 0 -37 5 -37 23c0 12 9 28 21 44c23 31 67 66 117 66c20 0 37 -4 37 -22c0 -12 -9 -28 -21 -44c-23 -31 -67 -67 -117 -67zM828 969c-20 0 -37 5 -37 23c0 12 9 28 21 44c23 31 67 66 117 66c20 0 37 -4 37 -22
c0 -12 -9 -28 -21 -44c-23 -31 -67 -67 -117 -67z" />
    <glyph glyph-name="U" unicode="U" horiz-adv-x="832" 
d="M352 156c0 -60 58 -76 124 -76c61 0 133 15 208 58c75 42 136 103 181 163l449 599h99l-449 -599c-64 -85 -152 -171 -257 -230c-108 -61 -212 -81 -299 -81c-96 0 -181 23 -181 109c0 57 39 130 93 202l449 599h99l-449 -599c-39 -52 -67 -104 -67 -145z" />
    <glyph glyph-name="Agrave" unicode="&#xc0;" horiz-adv-x="777" 
d="M14 0l999 900h100l-350 -900h-106l85 218h-349l-242 -218h-137zM898 1147h100l-12 -180h-73zM777 308l153 393l-437 -393h284z" />
    <glyph glyph-name="dollar" unicode="$" horiz-adv-x="728" 
d="M297 147c0 -57 63 -67 123 -67c55 0 118 6 187 41c60 30 110 80 146 128c23 30 33 58 33 81c0 25 -13 43 -38 52l-142 54c-48 17 -75 52 -75 99c0 35 16 77 50 123c53 71 122 142 209 190c72 39 140 55 202 60l129 172h99l-129 -173c59 -7 109 -29 109 -89
c0 -22 -7 -47 -19 -73l-117 -28c7 16 11 31 11 44c0 47 -47 59 -99 59c-48 0 -103 -8 -162 -40c-56 -31 -100 -77 -134 -122c-20 -26 -29 -51 -29 -71c0 -29 17 -50 47 -61l143 -54c43 -15 66 -47 66 -90c0 -38 -18 -83 -55 -133c-55 -73 -131 -148 -222 -195
c-82 -43 -157 -58 -226 -62l-129 -172h-99l129 172c-60 6 -109 23 -127 65c-4 10 -6 21 -6 33c0 24 7 50 21 79l116 27c-8 -18 -12 -34 -12 -49z" />
    <glyph glyph-name="ncaron" unicode="&#x148;" 
d="M813 595c66 0 118 -20 118 -77c0 -46 -34 -106 -78 -165l-265 -353h-99l265 353c29 39 52 78 52 109c0 30 -25 43 -61 43c-49 0 -104 -8 -165 -39c-53 -27 -100 -69 -132 -112l-265 -354h-99l439 585h99l-49 -65c7 4 13 8 20 12c79 46 156 63 220 63zM1107 892h73
l-254 -180h-100l16 180h73l7 -119z" />
    <glyph glyph-name="Ograve" unicode="&#xd2;" horiz-adv-x="980" 
d="M1000 1147h99l-11 -180h-74zM1277 706c0 84 -75 114 -172 114c-91 0 -204 -28 -315 -96c-121 -74 -216 -175 -290 -274c-68 -91 -122 -184 -122 -256c0 -84 75 -114 172 -114c91 0 204 28 315 96c121 74 216 175 290 274c68 91 122 184 122 256zM482 -10
c-127 0 -228 37 -228 148c0 88 62 201 146 312c93 124 215 249 367 340c144 86 287 120 405 120c127 0 229 -37 229 -148c0 -88 -63 -201 -147 -312c-93 -124 -214 -249 -366 -340c-144 -86 -288 -120 -406 -120z" />
    <glyph glyph-name="Icircumflex" unicode="&#xce;" horiz-adv-x="323" 
d="M112 0l675 900h99l-675 -900h-99zM791 1086l-185 -119h-74l255 180h99l-15 -180h-74z" />
    <glyph glyph-name="e" unicode="e" horiz-adv-x="693" 
d="M306 148c0 -51 46 -68 104 -68c52 0 112 10 177 44c21 11 42 25 61 40l53 -47c-28 -22 -58 -42 -90 -59c-98 -52 -190 -68 -269 -68c-88 0 -160 23 -160 101c0 56 39 129 93 201c62 82 144 165 245 224c99 58 196 79 276 79c88 0 161 -23 161 -101
c0 -56 -40 -130 -94 -202l-33 -44h-487c-22 -36 -37 -71 -37 -100zM833 437c0 51 -46 68 -104 68c-54 0 -120 -15 -186 -55c-52 -31 -95 -71 -132 -113h384c22 36 38 71 38 100z" />
    <glyph glyph-name="breve" unicode="&#x2d8;" horiz-adv-x="294" 
d="M691 725c-58 0 -121 10 -121 64c0 26 16 59 41 93h79c-11 -15 -17 -29 -17 -41c0 -33 44 -36 78 -36c31 0 65 3 103 20c29 13 57 34 74 57h79c-34 -45 -83 -88 -139 -116c-65 -32 -125 -41 -177 -41z" />
    <glyph glyph-name="ampersand" unicode="&#x26;" horiz-adv-x="868" 
d="M595 468c-23 12 -43 33 -43 67c0 35 20 78 53 123c52 70 126 139 213 186c93 50 181 66 256 66s140 -16 158 -66c3 -9 4 -17 4 -27c0 -19 -5 -40 -14 -62l-119 -32c5 13 8 26 8 37c0 49 -51 60 -105 60c-48 0 -105 -10 -165 -42c-56 -30 -103 -75 -137 -120
c-28 -37 -46 -74 -46 -103c0 -49 51 -60 105 -60h423l-67 -90h-144l-304 -405h-279c-75 0 -140 15 -159 64c-3 9 -5 19 -5 29c0 43 28 99 70 155c69 91 172 179 297 220zM353 150c0 -49 53 -60 106 -60h180l237 315h-181c-48 0 -104 -9 -164 -41c-55 -29 -101 -72 -134 -116
c-26 -35 -44 -71 -44 -98z" />
    <glyph glyph-name="d" unicode="d" horiz-adv-x="721" 
d="M789 595c69 0 117 -26 117 -84c0 -4 -1 -8 -1 -12l338 451h99l-712 -950h-99l64 86c-8 -6 -16 -11 -25 -17c-82 -53 -166 -79 -234 -79c-85 0 -156 24 -156 99c0 57 40 130 95 203c61 82 143 165 243 224c97 57 192 79 271 79zM820 440c0 48 -42 65 -98 65
c-52 0 -117 -16 -181 -55c-69 -42 -124 -101 -167 -158c-39 -52 -69 -106 -69 -147c0 -48 42 -65 98 -65c52 0 117 16 181 55c69 42 124 101 166 158c39 52 70 106 70 147z" />
    <glyph glyph-name="dotlessi" unicode="&#x131;" horiz-adv-x="266" 
d="M84 0l438 585h99l-439 -585h-98z" />
    <glyph glyph-name="Oslash" unicode="&#xd8;" horiz-adv-x="980" 
d="M1105 820c-91 0 -204 -28 -315 -96c-121 -74 -216 -175 -290 -274c-61 -81 -110 -163 -120 -231l873 554c-29 33 -83 47 -148 47zM1172 910c87 0 160 -18 199 -62l82 52h167l-219 -139c-1 -87 -64 -200 -147 -311c-93 -124 -214 -249 -366 -340
c-144 -86 -288 -120 -406 -120c-87 0 -159 18 -198 62l-82 -52h-167l219 139c1 87 63 200 146 311c93 124 215 249 367 340c144 86 287 120 405 120zM402 127c29 -33 83 -47 148 -47c91 0 204 28 315 96c121 74 216 175 290 274c61 81 110 163 120 231z" />
    <glyph glyph-name="Acircumflex" unicode="&#xc2;" horiz-adv-x="777" 
d="M14 0l999 900h100l-350 -900h-106l85 218h-349l-242 -218h-137zM777 308l153 393l-437 -393h284zM1018 1086l-185 -119h-74l255 180h99l-15 -180h-74z" />
    <glyph glyph-name="w" unicode="w" horiz-adv-x="903" 
d="M446 585h103l-130 -417l237 200l68 217h103l-30 -99l117 99h143l-312 -262l-48 -155l495 417h143l-695 -585h-100l64 204l-242 -204h-100z" />
    <glyph glyph-name="braceright" unicode="}" horiz-adv-x="427" 
d="M786 956c32 -24 55 -59 55 -112c0 -48 -20 -105 -66 -166l-131 -174c-24 -32 -43 -65 -43 -91c0 -23 20 -33 48 -33l-75 -100c-82 0 -153 -75 -190 -124l-131 -174c-90 -120 -247 -221 -407 -278l22 82c112 41 223 111 286 196l130 174c48 63 111 130 190 174
c-2 6 -2 12 -2 19c0 44 32 100 73 155l131 174c32 43 46 82 46 116c0 37 -17 63 -38 80z" />
    <glyph glyph-name="nacute" unicode="&#x144;" 
d="M813 595c66 0 118 -20 118 -77c0 -46 -34 -106 -78 -165l-265 -353h-99l265 353c29 39 52 78 52 109c0 30 -25 43 -61 43c-49 0 -104 -8 -165 -39c-53 -27 -100 -69 -132 -112l-265 -354h-99l439 585h99l-49 -65c7 4 13 8 20 12c79 46 156 63 220 63zM1077 892h99
l-284 -180h-74z" />
    <glyph glyph-name="lslash" unicode="&#x142;" horiz-adv-x="322" 
d="M529 557l295 393h99l-242 -322l128 59l-105 -139l-127 -60l-367 -488h-98l312 417l-127 -59l104 139z" />
    <glyph glyph-name="Ccaron" unicode="&#x10c;" horiz-adv-x="945" 
d="M378 194c0 -84 75 -114 172 -114c91 0 204 28 315 96c51 31 98 67 140 106l70 -32c-56 -52 -118 -99 -187 -140c-144 -86 -288 -120 -406 -120c-127 0 -228 37 -228 148c0 88 62 201 146 312c93 124 215 249 367 340c144 86 287 120 405 120c127 0 229 -37 229 -148
c0 -34 -9 -72 -26 -112l-118 -32c13 31 20 61 20 88c0 84 -75 114 -172 114c-91 0 -204 -28 -315 -96c-121 -74 -216 -175 -290 -274c-68 -91 -122 -184 -122 -256zM1261 1147h73l-254 -180h-100l16 180h73l7 -118z" />
    <glyph glyph-name="Uacute" unicode="&#xda;" horiz-adv-x="832" 
d="M352 156c0 -60 58 -76 124 -76c61 0 133 15 208 58c75 42 136 103 181 163l449 599h99l-449 -599c-64 -85 -152 -171 -257 -230c-108 -61 -212 -81 -299 -81c-96 0 -181 23 -181 109c0 57 39 130 93 202l449 599h99l-449 -599c-39 -52 -67 -104 -67 -145zM1157 1147h99
l-285 -180h-73z" />
    <glyph glyph-name="v" unicode="v" horiz-adv-x="588" 
d="M446 585h104l-137 -398l460 398h147l-676 -585h-100z" />
    <glyph glyph-name="E" unicode="E" horiz-adv-x="651" 
d="M98 0l675 900h504l-68 -90h-405l-236 -315h356l-68 -90h-355l-237 -315h406l-68 -90h-504z" />
    <glyph glyph-name="B" unicode="B" horiz-adv-x="735" 
d="M896 494c25 -14 44 -35 44 -72c0 -46 -30 -104 -74 -163c-54 -72 -129 -144 -218 -192c-96 -51 -186 -67 -263 -67h-287l675 900h287c72 0 136 -17 136 -82c0 -43 -30 -99 -71 -154c-53 -71 -133 -137 -229 -170zM1071 761c0 38 -36 49 -79 49h-188l-219 -292h188
c39 0 86 10 134 38c49 28 89 68 119 108c26 35 45 70 45 97zM815 365c0 51 -53 63 -109 63h-188l-254 -338h188c50 0 110 10 173 44c58 31 107 78 142 125c29 38 48 76 48 106z" />
    <glyph glyph-name="s" unicode="s" horiz-adv-x="560" 
d="M248 122c0 -38 52 -42 92 -42c36 0 76 2 121 21c33 14 63 40 83 66c11 15 17 28 17 39c0 14 -9 25 -26 28l-106 32c-45 9 -73 35 -73 73c0 24 10 51 33 82c37 49 88 99 149 131c69 36 132 43 188 43c55 0 104 -10 119 -45c3 -7 5 -15 5 -23c0 -18 -7 -39 -19 -61
l-113 -22c5 9 7 18 7 26c0 30 -34 35 -66 35c-29 0 -61 -3 -97 -21c-30 -15 -56 -39 -74 -63c-9 -12 -13 -23 -13 -32c0 -18 15 -30 36 -34l107 -31c40 -8 62 -32 62 -67c0 -25 -12 -56 -37 -90c-39 -52 -94 -103 -158 -134c-79 -38 -150 -43 -213 -43c-62 0 -119 9 -141 46
c-5 8 -7 18 -7 29c0 18 6 39 17 61l114 22c-5 -10 -7 -18 -7 -26z" />
    <glyph glyph-name="OE" unicode="&#x152;" horiz-adv-x="1176" 
d="M1053 820c-80 0 -181 -32 -276 -96c-116 -78 -204 -177 -277 -274s-134 -196 -134 -274c0 -63 53 -96 132 -96c80 0 181 32 276 96c116 78 204 177 277 274s134 196 134 274c0 63 -53 96 -132 96zM430 -10c-110 0 -188 39 -188 131c0 93 70 212 158 329
c91 122 205 246 353 340c128 82 261 120 367 120c105 0 182 -37 188 -118l80 108h414l-68 -90h-314l-236 -315h265l-68 -90h-265l-236 -315h314l-67 -90h-414l81 108c-127 -81 -259 -118 -364 -118z" />
    <glyph glyph-name="caron" unicode="&#x2c7;" horiz-adv-x="294" 
d="M918 900h73l-255 -180h-99l16 180h73l7 -119z" />
    <glyph glyph-name="eth" unicode="&#xf0;" horiz-adv-x="735" 
d="M353 -10c-91 0 -169 23 -169 104c0 56 38 127 91 198c62 82 145 166 247 224s202 79 285 79c61 0 108 -18 124 -56c27 65 44 128 49 185l-262 -70l87 117l173 45c-7 51 -25 96 -54 134h194c5 -26 7 -53 7 -81v-14l220 58l-88 -116l-143 -38c-28 -142 -107 -303 -230 -467
c-62 -82 -145 -165 -247 -223s-201 -79 -284 -79zM308 151c0 -54 51 -71 112 -71c56 0 125 15 194 55c71 41 128 99 171 157c38 51 66 102 66 142c0 54 -51 71 -112 71c-56 0 -124 -15 -193 -55c-71 -41 -129 -100 -172 -158c-38 -51 -66 -101 -66 -141z" />
    <glyph glyph-name="Rcaron" unicode="&#x158;" horiz-adv-x="707" 
d="M98 0l675 900h268c82 0 153 -16 174 -70c4 -10 5 -21 5 -32c0 -47 -31 -107 -76 -168c-83 -110 -213 -216 -372 -254l-72 -376h-100l70 361c-11 -1 -23 -1 -34 -1h-169l-270 -360h-99zM1093 1147h73l-254 -180h-100l16 180h73l7 -118zM1095 742c0 56 -60 68 -121 68h-170
l-270 -360h170c55 0 119 11 188 47c62 33 115 83 153 133c30 40 50 81 50 112z" />
    <glyph glyph-name="zacute" unicode="&#x17a;" horiz-adv-x="518" 
d="M406 495l68 90h448l-75 -100l-579 -395h282l-67 -90h-448l75 100l579 395h-283zM1000 892h99l-284 -180h-74z" />
    <glyph glyph-name="uring" unicode="&#x16f;" 
d="M304 132c0 -41 39 -52 85 -52c42 0 92 10 143 39s93 72 124 113l265 353h99l-439 -585h-99l42 57c-68 -44 -144 -67 -202 -67c-75 0 -143 17 -143 85c0 44 30 101 72 157l265 353h99l-265 -353c-27 -36 -46 -72 -46 -100zM1016 841c0 16 -16 21 -34 21
c-45 0 -86 -32 -107 -60c-11 -14 -18 -28 -18 -39c0 -16 17 -21 35 -21c45 0 85 32 106 60c11 14 18 28 18 39zM846 682c-38 0 -72 9 -72 43c0 22 14 49 35 77c25 33 59 66 100 89c43 24 83 31 117 31c38 0 73 -9 73 -43c0 -22 -14 -49 -35 -77c-25 -33 -59 -66 -100 -89
c-43 -24 -84 -31 -118 -31z" />
    <glyph glyph-name="I" unicode="I" horiz-adv-x="323" 
d="M112 0l675 900h99l-675 -900h-99z" />
    <glyph glyph-name="ntilde" unicode="&#xf1;" 
d="M813 595c66 0 118 -20 118 -77c0 -46 -34 -106 -78 -165l-265 -353h-99l265 353c29 39 52 78 52 109c0 30 -25 43 -61 43c-49 0 -104 -8 -165 -39c-53 -27 -100 -69 -132 -112l-265 -354h-99l439 585h99l-49 -65c7 4 13 8 20 12c79 46 156 63 220 63zM851 763
c-38 0 -72 -22 -90 -46h-80c26 35 62 69 105 93c45 25 89 33 125 33c44 0 57 -33 101 -33c38 0 73 22 91 46h79c-26 -35 -62 -69 -105 -93c-45 -25 -89 -33 -125 -33c-44 0 -57 33 -101 33z" />
    <glyph glyph-name="Uring" unicode="&#x16e;" horiz-adv-x="832" 
d="M352 156c0 -60 58 -76 124 -76c61 0 133 15 208 58c75 42 136 103 181 163l449 599h99l-449 -599c-64 -85 -152 -171 -257 -230c-108 -61 -212 -81 -299 -81c-96 0 -181 23 -181 109c0 57 39 130 93 202l449 599h99l-449 -599c-39 -52 -67 -104 -67 -145zM1103 1097
c0 16 -17 20 -35 20c-45 0 -85 -32 -106 -60c-11 -14 -18 -28 -18 -39c0 -16 16 -21 34 -21c45 0 86 32 107 60c11 14 18 29 18 40zM933 937c-38 0 -72 9 -72 43c0 22 14 49 35 77c25 33 59 66 100 89c43 24 83 31 117 31c38 0 73 -9 73 -43c0 -22 -14 -49 -35 -77
c-25 -33 -59 -65 -100 -88c-43 -24 -84 -32 -118 -32z" />
    <glyph glyph-name="tcedilla" unicode="&#x163;" horiz-adv-x="378" 
d="M152 -154c0 25 -32 28 -58 28h-73l123 126h-4l371 495h-128l67 90h128l274 365h99l-274 -365h128l-67 -90h-128l-372 -495h-20l-54 -54c43 -2 88 -13 88 -55c0 -23 -14 -51 -36 -81c-29 -39 -72 -78 -120 -102c-56 -28 -107 -35 -152 -35c-50 0 -103 8 -103 55
c0 12 3 26 10 40l93 22c-3 -6 -4 -11 -4 -16c0 -24 30 -29 58 -29c24 0 50 3 79 17c23 11 46 29 60 48c10 13 15 26 15 36z" />
    <glyph glyph-name="ucircumflex" unicode="&#xfb;" 
d="M304 132c0 -41 39 -52 85 -52c42 0 92 10 143 39s93 72 124 113l265 353h99l-439 -585h-99l42 57c-68 -44 -144 -67 -202 -67c-75 0 -143 17 -143 85c0 44 30 101 72 157l265 353h99l-265 -353c-27 -36 -46 -72 -46 -100zM958 831l-185 -119h-73l254 180h100l-16 -180
h-73z" />
    <glyph glyph-name="Egrave" unicode="&#xc8;" horiz-adv-x="651" 
d="M98 0l675 900h504l-68 -90h-405l-236 -315h356l-68 -90h-355l-237 -315h406l-68 -90h-504zM860 1147h99l-11 -180h-74z" />
    <glyph glyph-name="j" unicode="j" horiz-adv-x="294" 
d="M-204 -310c-54 0 -97 16 -97 63c0 15 5 32 12 50l118 31c-3 -9 -5 -17 -5 -24c0 -18 12 -30 39 -30c71 0 133 68 165 110l522 695h99l-521 -695c-40 -54 -93 -108 -159 -148c-62 -37 -123 -52 -173 -52zM701 713c-20 0 -37 5 -37 23c0 12 9 28 21 44c23 31 67 67 117 67
c20 0 37 -5 37 -23c0 -12 -9 -28 -21 -44c-23 -31 -67 -67 -117 -67z" />
    <glyph glyph-name="Oacute" unicode="&#xd3;" horiz-adv-x="980" 
d="M1231 1147h99l-284 -180h-74zM1277 706c0 84 -75 114 -172 114c-91 0 -204 -28 -315 -96c-121 -74 -216 -175 -290 -274c-68 -91 -122 -184 -122 -256c0 -84 75 -114 172 -114c91 0 204 28 315 96c121 74 216 175 290 274c68 91 122 184 122 256zM482 -10
c-127 0 -228 37 -228 148c0 88 62 201 146 312c93 124 215 249 367 340c144 86 287 120 405 120c127 0 229 -37 229 -148c0 -88 -63 -201 -147 -312c-93 -124 -214 -249 -366 -340c-144 -86 -288 -120 -406 -120z" />
    <glyph glyph-name="ae" unicode="&#xe6;" horiz-adv-x="1036" 
d="M891 506c87 58 196 89 274 89c80 0 141 -24 141 -93c0 -59 -44 -135 -100 -210l-33 -44h-435c-25 -39 -43 -78 -43 -109c0 -41 35 -59 84 -59c46 0 101 11 158 44c19 11 37 23 53 36l57 -43c-27 -22 -55 -42 -86 -59c-90 -50 -176 -68 -249 -68c-75 0 -134 24 -140 82
c-18 -12 -37 -24 -56 -33c-80 -39 -153 -49 -217 -49s-123 10 -144 49c-5 8 -7 18 -7 29c0 31 18 69 48 109c40 54 100 106 167 139c80 39 153 48 217 48c53 0 97 -12 107 -49l37 49c25 33 42 66 42 92c0 39 -38 49 -81 49c-39 0 -86 -10 -134 -37c-20 -11 -38 -24 -55 -39
l-66 37c30 26 63 49 98 69c81 45 159 60 225 60c72 0 138 -16 138 -82v-7zM512 274c-37 0 -79 -4 -126 -25c-36 -16 -69 -43 -91 -72c-14 -19 -22 -38 -22 -53c0 -7 2 -14 6 -19c15 -21 50 -25 87 -25s79 4 126 25c36 16 70 43 92 72c14 19 22 38 22 53c0 7 -2 14 -6 19
c-15 21 -51 25 -88 25zM1139 337c25 39 42 78 42 109c0 41 -34 59 -83 59c-48 0 -109 -18 -167 -55c-50 -32 -91 -72 -126 -113h334z" />
    <glyph glyph-name="c" unicode="c" horiz-adv-x="669" 
d="M306 148c0 -51 46 -68 104 -68c54 0 120 15 186 55c34 20 65 45 92 71l74 -28c-42 -41 -90 -78 -143 -109c-99 -58 -197 -79 -277 -79c-88 0 -160 23 -160 101c0 56 39 129 93 201c62 82 144 165 245 224c99 58 196 79 276 79c88 0 161 -23 161 -101
c0 -26 -9 -56 -23 -87l-116 -28c9 21 15 41 15 58c0 51 -46 68 -104 68c-54 0 -120 -15 -186 -55c-70 -42 -126 -101 -169 -158c-39 -52 -68 -103 -68 -144z" />
    <glyph glyph-name="Lcaron" unicode="&#x13d;" horiz-adv-x="644" 
d="M98 0l675 900h99l-608 -810h406l-68 -90h-504zM1075 900h143l-354 -292h-106z" />
    <glyph glyph-name="D" unicode="D" horiz-adv-x="882" 
d="M1053 900c129 0 237 -34 237 -149c0 -84 -60 -194 -141 -301c-91 -122 -212 -246 -362 -333c-146 -85 -290 -117 -409 -117h-280l675 900h280zM1165 694c0 88 -80 116 -180 116h-181l-540 -720h181c92 0 205 27 318 94c119 71 214 169 287 266c65 87 115 176 115 244z
" />
    <glyph glyph-name="icircumflex" unicode="&#xee;" horiz-adv-x="266" 
d="M84 0l438 585h99l-439 -585h-98zM762 831l-185 -119h-73l254 180h100l-16 -180h-73z" />
    <glyph glyph-name="gbreve" unicode="&#x11f;" horiz-adv-x="714" 
d="M789 595c70 0 118 -25 118 -84v-10l63 84h99l-465 -619c-57 -76 -133 -152 -227 -204c-96 -54 -189 -72 -267 -72c-85 0 -161 20 -161 97c0 18 4 38 12 59l119 35c-5 -13 -7 -26 -7 -37c0 -50 49 -64 105 -64c51 0 112 12 175 48s115 87 153 138l96 128
c-8 -6 -17 -12 -25 -17c-81 -53 -167 -77 -234 -77c-85 0 -157 23 -157 99c0 56 40 128 93 199c60 81 141 162 240 220c97 56 191 77 270 77zM887 717c-58 0 -121 10 -121 64c0 26 16 60 41 94h79c-11 -15 -17 -30 -17 -42c0 -33 44 -36 78 -36c31 0 65 3 103 20
c29 13 57 35 74 58h79c-34 -45 -83 -89 -139 -117c-65 -32 -125 -41 -177 -41zM821 440c0 49 -43 65 -99 65c-52 0 -116 -16 -180 -54c-68 -41 -122 -97 -164 -153c-38 -51 -67 -103 -67 -143c0 -49 43 -65 99 -65c52 0 116 16 180 54c69 41 122 98 164 154
c38 51 67 102 67 142z" />
    <glyph glyph-name="ij" unicode="&#x133;" horiz-adv-x="644" 
d="M565 585h99l-439 -585h-99zM121 -310c-61 0 -117 15 -117 70c0 13 3 28 9 43l120 35c-3 -8 -4 -14 -4 -20c0 -27 25 -38 59 -38c29 0 65 8 101 29c37 21 67 51 89 81l522 695h99l-521 -695c-41 -55 -97 -110 -165 -148c-69 -39 -136 -52 -192 -52zM1050 714
c-20 0 -37 5 -37 23c0 12 9 28 21 44c23 31 67 67 117 67c20 0 37 -5 37 -23c0 -12 -9 -28 -21 -44c-23 -31 -67 -67 -117 -67zM707 714c-20 0 -37 5 -37 23c0 12 9 28 21 44c23 31 67 67 117 67c20 0 37 -5 37 -23c0 -12 -9 -28 -21 -44c-23 -31 -67 -67 -117 -67z" />
    <glyph glyph-name="n" unicode="n" 
d="M813 595c66 0 118 -20 118 -77c0 -46 -34 -106 -78 -165l-265 -353h-99l265 353c29 39 52 78 52 109c0 30 -25 43 -61 43c-49 0 -104 -8 -165 -39c-53 -27 -100 -69 -132 -112l-265 -354h-99l439 585h99l-49 -65c7 4 13 8 20 12c79 46 156 63 220 63z" />
    <glyph glyph-name="percent" unicode="%" horiz-adv-x="1148" 
d="M177 -45l1303 990h166l-1303 -990h-166zM914 810c-84 0 -160 -85 -197 -135c-27 -35 -50 -72 -50 -102c0 -22 18 -33 45 -33c84 0 159 85 196 135c27 35 50 72 50 102c0 22 -17 33 -44 33zM644 450c-58 0 -101 19 -101 68c0 44 33 101 75 157c45 60 103 122 176 167
c66 41 134 58 188 58c58 0 100 -19 100 -68c0 -44 -33 -101 -75 -157c-45 -60 -102 -122 -175 -167c-66 -41 -134 -58 -188 -58zM1111 360c-84 0 -159 -85 -196 -135c-27 -35 -50 -72 -50 -102c0 -22 17 -33 44 -33c84 0 160 85 197 135c27 35 50 72 50 102
c0 22 -18 33 -45 33zM842 0c-58 0 -101 19 -101 68c0 44 33 101 75 157c45 60 102 122 175 167c66 41 134 58 188 58c58 0 101 -19 101 -68c0 -44 -33 -101 -75 -157c-45 -60 -103 -122 -176 -167c-66 -41 -133 -58 -187 -58z" />
    <glyph glyph-name="q" unicode="q" horiz-adv-x="714" 
d="M789 595c69 0 117 -26 117 -84c0 -4 -1 -8 -1 -12l65 86h99l-664 -885h-99l289 386c-8 -6 -16 -11 -25 -17c-82 -53 -166 -79 -234 -79c-85 0 -156 24 -156 99c0 57 40 130 95 203c61 82 143 165 243 224c97 57 192 79 271 79zM820 440c0 48 -42 65 -98 65
c-52 0 -117 -16 -181 -55c-69 -42 -124 -101 -167 -158c-39 -52 -69 -106 -69 -147c0 -48 42 -65 98 -65c52 0 117 16 181 55c69 42 123 100 166 157c39 52 70 107 70 148z" />
    <glyph glyph-name="Racute" unicode="&#x154;" horiz-adv-x="707" 
d="M98 0l675 900h268c82 0 153 -16 174 -70c4 -10 5 -21 5 -32c0 -47 -31 -107 -76 -168c-83 -110 -213 -216 -372 -254l-72 -376h-100l70 361c-11 -1 -23 -1 -34 -1h-169l-270 -360h-99zM1063 1147h99l-284 -180h-74zM1095 742c0 56 -60 68 -121 68h-170l-270 -360h170
c55 0 119 11 188 47c62 33 115 83 153 133c30 40 50 81 50 112z" />
    <glyph glyph-name="x" unicode="x" horiz-adv-x="567" 
d="M475 585h100l-7 -175l238 175h163l-405 -300l-11 -285h-99l7 210l-283 -210h-164l452 334z" />
    <glyph glyph-name="S" unicode="S" horiz-adv-x="728" 
d="M297 147c0 -57 63 -67 123 -67c55 0 118 6 187 41c60 30 110 80 146 128c23 30 33 58 33 81c0 25 -13 43 -38 52l-142 54c-48 17 -75 52 -75 99c0 35 16 77 50 123c53 71 122 142 209 190c92 50 179 62 253 62c81 0 157 -18 157 -92c0 -22 -7 -47 -19 -73l-119 -31
c8 17 13 33 13 47c0 47 -47 59 -99 59c-48 0 -103 -8 -162 -40c-56 -31 -100 -77 -134 -122c-20 -26 -29 -51 -29 -71c0 -29 17 -50 47 -61l143 -54c43 -15 66 -47 66 -90c0 -38 -18 -83 -55 -133c-55 -73 -131 -148 -222 -195c-102 -53 -195 -64 -277 -64
c-81 0 -153 15 -175 67c-4 10 -6 21 -6 33c0 24 7 50 21 79l116 27c-8 -18 -12 -34 -12 -49z" />
    <glyph glyph-name="A" unicode="A" horiz-adv-x="777" 
d="M14 0l999 900h100l-350 -900h-106l85 218h-349l-242 -218h-137zM777 308l153 393l-437 -393h284z" />
    <glyph glyph-name="Y" unicode="Y" horiz-adv-x="728" 
d="M682 900h101l-80 -412l538 412h155l-723 -553l-259 -347h-100l260 347z" />
    <glyph glyph-name="oslash" unicode="&#xf8;" horiz-adv-x="700" 
d="M729 505c-54 0 -120 -15 -186 -55c-70 -42 -126 -101 -169 -158c-28 -38 -52 -75 -62 -109l484 310c-18 8 -41 12 -67 12zM796 595c47 0 90 -7 119 -25l23 15h173l-154 -99c-3 -55 -42 -125 -94 -194c-62 -82 -143 -164 -244 -223c-99 -58 -197 -79 -277 -79
c-47 0 -89 7 -118 25l-24 -15h-172l154 99c3 55 41 124 93 193c62 82 144 165 245 224c99 58 196 79 276 79zM343 92c18 -8 41 -12 67 -12c54 0 120 15 186 55c70 42 125 100 168 157c28 38 53 76 63 110z" />
    <glyph glyph-name="dieresis" unicode="&#xa8;" horiz-adv-x="294" 
d="M562 721c-20 0 -37 5 -37 23c0 12 8 28 20 44c23 31 67 67 117 67c20 0 37 -5 37 -23c0 -12 -8 -28 -20 -44c-23 -31 -67 -67 -117 -67zM814 721c-20 0 -37 5 -37 23c0 12 8 28 20 44c23 30 67 67 117 67c20 0 37 -5 37 -23c0 -12 -8 -28 -20 -44
c-23 -31 -67 -67 -117 -67z" />
    <glyph glyph-name="o" unicode="o" horiz-adv-x="700" 
d="M833 437c0 51 -46 68 -104 68c-54 0 -120 -15 -186 -55c-70 -42 -126 -101 -169 -158c-39 -52 -68 -103 -68 -144c0 -51 46 -68 104 -68c54 0 120 15 186 55c70 42 125 100 168 157c39 52 69 104 69 145zM342 -10c-88 0 -160 23 -160 101c0 56 39 129 93 201
c62 82 144 165 245 224c99 58 196 79 276 79c88 0 161 -23 161 -101c0 -56 -40 -130 -94 -202c-62 -82 -143 -164 -244 -223c-99 -58 -197 -79 -277 -79z" />
    <glyph glyph-name="sacute" unicode="&#x15b;" horiz-adv-x="560" 
d="M248 122c0 -38 52 -42 92 -42c36 0 76 2 121 21c33 14 63 40 83 66c11 15 17 28 17 39c0 14 -9 25 -26 28l-106 32c-45 9 -73 35 -73 73c0 24 10 51 33 82c37 49 88 99 149 131c69 36 132 43 188 43c55 0 104 -10 119 -45c3 -7 5 -15 5 -23c0 -18 -7 -39 -19 -61
l-113 -22c5 9 7 18 7 26c0 30 -34 35 -66 35c-29 0 -61 -3 -97 -21c-30 -15 -56 -39 -74 -63c-9 -12 -13 -23 -13 -32c0 -18 15 -30 36 -34l107 -31c40 -8 62 -32 62 -67c0 -25 -12 -56 -37 -90c-39 -52 -94 -103 -158 -134c-79 -38 -150 -43 -213 -43c-62 0 -119 9 -141 46
c-5 8 -7 18 -7 29c0 18 6 39 17 61l114 22c-5 -10 -7 -18 -7 -26zM1021 892h99l-284 -180h-74z" />
    <glyph glyph-name="J" unicode="J" horiz-adv-x="616" 
d="M223 139c0 -45 42 -59 93 -59c47 0 103 13 161 47c60 35 107 84 144 133l480 640h99l-480 -640c-55 -74 -129 -148 -220 -200s-179 -70 -252 -70c-80 0 -149 20 -149 92c0 10 1 19 3 30l124 47c-2 -7 -3 -14 -3 -20z" />
    <glyph glyph-name="dotaccent" unicode="&#x2d9;" horiz-adv-x="252" 
d="M667 721c-20 0 -37 5 -37 23c0 12 8 28 20 44c23 31 67 67 117 67c20 0 37 -5 37 -23c0 -12 -8 -28 -20 -44c-23 -31 -67 -67 -117 -67z" />
    <glyph glyph-name="y" unicode="y" horiz-adv-x="588" 
d="M446 585h104l-131 -389l453 389h148l-1030 -885h-148l430 370z" />
    <glyph glyph-name="yacute" unicode="&#xfd;" horiz-adv-x="588" 
d="M446 585h104l-131 -389l453 389h148l-1030 -885h-148l430 370zM1035 892h99l-284 -180h-74z" />
    <glyph glyph-name="dotlessj" unicode="&#x237;" horiz-adv-x="294" 
d="M-204 -310c-54 0 -97 16 -97 63c0 15 5 32 12 50l118 31c-3 -9 -5 -17 -5 -24c0 -18 12 -30 39 -30c71 0 133 68 165 110l522 695h99l-521 -695c-40 -54 -93 -108 -159 -148c-62 -37 -123 -52 -173 -52z" />
    <glyph glyph-name="braceleft" unicode="{" horiz-adv-x="427" 
d="M125 -286c-25 23 -44 56 -44 102c0 48 20 105 66 166l131 174c23 34 43 64 43 91c0 23 -20 33 -48 33l75 100c82 0 153 75 190 124l131 174h99c60 80 161 146 265 188l16 80c-149 -58 -295 -154 -380 -268h99l-131 -174c-48 -63 -110 -130 -189 -174c2 -6 2 -12 2 -19
c0 -44 -33 -100 -74 -155l-130 -174c-32 -43 -46 -82 -46 -116c0 -31 13 -55 29 -72z" />
    <glyph glyph-name="numbersign" unicode="#" horiz-adv-x="756" 
d="M230 270l68 90h139l167 180h-143l67 90h159l250 270h127l-249 -270h134l250 270h128l-250 -270h123l-67 -90h-139l-167 -180h143l-68 -90h-158l-250 -270h-127l249 270h-134l-250 -270h-128l250 270h-124zM700 360l166 180h-135l-166 -180h135z" />
    <glyph glyph-name="quoteleft" unicode="&#x2018;" horiz-adv-x="357" 
d="M856 900h105l-317 -292h-142z" />
    <glyph glyph-name="ffl" unicode="&#xfb04;" horiz-adv-x="973" 
d="M411 495l67 90h109l161 214c33 44 75 88 129 119c52 30 104 42 146 42c38 0 69 -9 80 -33l-121 -76c0 12 -11 19 -27 19c-46 0 -87 -43 -108 -71l-161 -214h220l160 214c33 44 76 88 130 119c52 30 103 42 145 42c38 0 69 -9 80 -33l-120 -76c0 12 -11 19 -27 19
c-46 0 -88 -43 -109 -71l-160 -214h114l-67 -90h-115l-371 -495h-99l371 495h-219l-371 -495h-99l371 495h-109zM790 0l712 950h99l-712 -950h-99z" />
    <glyph glyph-name="perthousandzero" horiz-adv-x="483" 
d="M512 360c-86 0 -163 -83 -202 -135c-27 -35 -49 -71 -49 -100c0 -23 19 -35 48 -35c86 0 163 83 202 135c27 35 49 71 49 100c0 23 -19 35 -48 35zM242 0c-59 0 -105 18 -105 69c0 44 32 101 74 156c45 60 102 122 176 167c68 41 137 58 192 58c59 0 104 -18 104 -69
c0 -44 -31 -101 -73 -156c-45 -60 -103 -122 -177 -167c-68 -41 -136 -58 -191 -58z" />
    <glyph glyph-name="lcaron" unicode="&#x13e;" horiz-adv-x="267" 
d="M84 0l712 950h100l-217 -289l313 289h143l-354 -292h-105l-493 -658h-99z" />
    <glyph glyph-name="three" unicode="3" 
d="M304 -10c-80 0 -154 18 -154 91c0 19 5 41 15 64l119 31c-6 -14 -9 -26 -9 -38c0 -46 46 -58 97 -58c46 0 100 10 157 42c55 31 102 75 135 120c28 38 48 76 48 105c0 46 -46 58 -97 58h-59l67 90h60c46 0 101 10 158 42c55 31 101 76 134 121c28 38 48 75 48 104
c0 46 -46 58 -97 58c-46 0 -100 -10 -157 -42c-27 -15 -53 -34 -75 -54l-71 31c36 34 77 64 122 89c90 50 176 66 249 66c80 0 154 -18 154 -91c0 -45 -30 -103 -74 -161c-62 -82 -157 -156 -270 -190c19 -14 33 -33 33 -64c0 -45 -30 -104 -74 -162
c-52 -70 -124 -139 -210 -186c-90 -50 -176 -66 -249 -66z" />
    <glyph glyph-name="Ucircumflex" unicode="&#xdb;" horiz-adv-x="832" 
d="M352 156c0 -60 58 -76 124 -76c61 0 133 15 208 58c75 42 136 103 181 163l449 599h99l-449 -599c-64 -85 -152 -171 -257 -230c-108 -61 -212 -81 -299 -81c-96 0 -181 23 -181 109c0 57 39 130 93 202l449 599h99l-449 -599c-39 -52 -67 -104 -67 -145zM1045 1086
l-185 -119h-73l254 180h99l-15 -180h-73z" />
    <glyph glyph-name="ohungarumlaut" unicode="&#x151;" horiz-adv-x="700" 
d="M727 712l248 180h100l-274 -180h-74zM1185 892h100l-274 -180h-74zM833 437c0 51 -46 68 -104 68c-54 0 -120 -15 -186 -55c-70 -42 -126 -101 -169 -158c-39 -52 -68 -103 -68 -144c0 -51 46 -68 104 -68c54 0 120 15 186 55c70 42 125 100 168 157c39 52 69 104 69 145
zM342 -10c-88 0 -160 23 -160 101c0 56 39 129 93 201c62 82 144 165 245 224c99 58 196 79 276 79c88 0 161 -23 161 -101c0 -56 -40 -130 -94 -202c-62 -82 -143 -164 -244 -223c-99 -58 -197 -79 -277 -79z" />
    <glyph glyph-name="bracketleft" unicode="[" horiz-adv-x="392" 
d="M-99 -300l934 1245h224l-68 -90h-125l-798 -1065h124l-67 -90h-224z" />
    <glyph glyph-name="oacute" unicode="&#xf3;" horiz-adv-x="700" 
d="M1091 892h99l-284 -180h-74zM833 437c0 51 -46 68 -104 68c-54 0 -120 -15 -186 -55c-70 -42 -126 -101 -169 -158c-39 -52 -68 -103 -68 -144c0 -51 46 -68 104 -68c54 0 120 15 186 55c70 42 125 100 168 157c39 52 69 104 69 145zM342 -10c-88 0 -160 23 -160 101
c0 56 39 129 93 201c62 82 144 165 245 224c99 58 196 79 276 79c88 0 161 -23 161 -101c0 -56 -40 -130 -94 -202c-62 -82 -143 -164 -244 -223c-99 -58 -197 -79 -277 -79z" />
    <glyph glyph-name="nine" unicode="9" horiz-adv-x="686" 
d="M845 428c-75 -56 -184 -90 -256 -90c-85 0 -159 21 -159 98c0 53 36 121 87 188c58 78 137 157 233 212s190 74 268 74c85 0 160 -21 160 -98c0 -53 -36 -121 -87 -188l-244 -325c-62 -83 -144 -168 -246 -229c-97 -58 -194 -80 -273 -80c-85 0 -153 24 -153 99
c0 24 6 51 18 79l118 30c-8 -19 -12 -36 -12 -52c0 -47 41 -66 97 -66c53 0 118 17 182 57c71 44 126 104 170 162zM1053 755c0 50 -46 65 -102 65c-52 0 -114 -14 -177 -51c-65 -38 -118 -92 -158 -145c-35 -47 -62 -95 -62 -132c0 -50 47 -64 103 -64c52 0 114 14 177 51
c65 38 118 92 158 145c35 47 61 94 61 131z" />
    <glyph glyph-name="backslash" unicode="\" horiz-adv-x="525" 
d="M311 -45l426 990h152l-426 -990h-152z" />
    <glyph glyph-name="atilde" unicode="&#xe3;" horiz-adv-x="658" 
d="M761 595c77 0 151 -15 151 -86c0 -40 -26 -93 -65 -145l-273 -364h-99l33 43c-68 -39 -142 -53 -200 -53c-68 0 -131 9 -156 49c-6 9 -8 20 -8 32c0 30 16 68 45 106c41 54 103 107 171 139c85 40 160 48 228 48c58 0 109 -11 120 -53l40 53c24 31 40 64 40 88
c0 44 -47 53 -94 53c-43 0 -93 -9 -146 -37c-22 -11 -42 -25 -60 -41l-64 39c31 26 65 50 101 69c86 46 167 60 236 60zM830 763c-38 0 -72 -22 -90 -46h-80c26 35 62 69 105 93c45 25 89 33 125 33c44 0 58 -33 102 -33c38 0 72 22 90 46h79c-26 -35 -62 -69 -105 -93
c-45 -25 -88 -33 -124 -33c-44 0 -58 33 -102 33zM521 274c-41 0 -86 -4 -137 -25c-37 -15 -74 -42 -96 -72c-14 -18 -20 -35 -20 -49c0 -9 3 -17 8 -23c19 -21 58 -25 99 -25s86 4 137 25c37 15 74 42 96 72c14 18 20 36 20 50c0 9 -3 16 -8 22c-19 21 -58 25 -99 25z" />
    <glyph glyph-name="Aacute" unicode="&#xc1;" horiz-adv-x="777" 
d="M14 0l999 900h100l-350 -900h-106l85 218h-349l-242 -218h-137zM1129 1147h99l-284 -180h-73zM777 308l153 393l-437 -393h284z" />
    <glyph glyph-name="ccedilla" unicode="&#xe7;" horiz-adv-x="669" 
d="M306 148c0 -51 46 -68 104 -68c54 0 120 15 186 55c34 20 65 45 92 71l74 -28c-42 -41 -90 -78 -143 -109c-88 -51 -174 -74 -249 -78l-45 -45c43 -2 88 -13 88 -55c0 -23 -14 -51 -36 -81c-29 -39 -72 -78 -120 -102c-56 -28 -107 -35 -152 -35c-50 0 -103 8 -103 55
c0 12 3 26 10 40l93 22c-3 -6 -4 -11 -4 -16c0 -24 30 -29 58 -29c24 0 50 3 79 17c23 11 46 29 60 48c10 13 15 26 15 36c0 25 -31 28 -57 28h-74l116 118c-66 8 -116 34 -116 99c0 56 39 129 93 201c62 82 144 165 245 224c99 58 196 79 276 79c88 0 161 -23 161 -101
c0 -26 -9 -56 -23 -87l-116 -28c9 21 15 41 15 58c0 51 -46 68 -104 68c-54 0 -120 -15 -186 -55c-70 -42 -126 -101 -169 -158c-39 -52 -68 -103 -68 -144z" />
    <glyph glyph-name="Lslash" unicode="&#x141;" horiz-adv-x="658" 
d="M616 0h-504l231 308l-124 -54l91 122l124 54l353 470h99l-305 -406l351 152l-91 -122l-351 -152l-212 -282h406z" />
    <glyph glyph-name="Sacute" unicode="&#x15a;" horiz-adv-x="728" 
d="M297 147c0 -57 63 -67 123 -67c55 0 118 6 187 41c60 30 110 80 146 128c23 30 33 58 33 81c0 25 -13 43 -38 52l-142 54c-48 17 -75 52 -75 99c0 35 16 77 50 123c53 71 122 142 209 190c92 50 179 62 253 62c81 0 157 -18 157 -92c0 -22 -7 -47 -19 -73l-119 -31
c8 17 13 33 13 47c0 47 -47 59 -99 59c-48 0 -103 -8 -162 -40c-56 -31 -100 -77 -134 -122c-20 -26 -29 -51 -29 -71c0 -29 17 -50 47 -61l143 -54c43 -15 66 -47 66 -90c0 -38 -18 -83 -55 -133c-55 -73 -131 -148 -222 -195c-102 -53 -195 -64 -277 -64
c-81 0 -153 15 -175 67c-4 10 -6 21 -6 33c0 24 7 50 21 79l116 27c-8 -18 -12 -34 -12 -49zM1101 1147h99l-284 -180h-73z" />
    <glyph glyph-name="visiblespace" unicode="&#x2420;" horiz-adv-x="560" 
d="M28 0h99l-56 -75h306l56 75h99c-41 -55 -83 -110 -124 -165h-504c41 55 83 110 124 165z" />
    <glyph glyph-name="aring" unicode="&#xe5;" horiz-adv-x="658" 
d="M761 595c77 0 151 -15 151 -86c0 -40 -26 -93 -65 -145l-273 -364h-99l33 43c-68 -39 -142 -53 -200 -53c-68 0 -131 9 -156 49c-6 9 -8 20 -8 32c0 30 16 68 45 106c41 54 103 107 171 139c85 40 160 48 228 48c58 0 109 -11 120 -53l40 53c24 31 40 64 40 88
c0 44 -47 53 -94 53c-43 0 -93 -9 -146 -37c-22 -11 -42 -25 -60 -41l-64 39c31 26 65 50 101 69c86 46 167 60 236 60zM521 274c-41 0 -86 -4 -137 -25c-37 -15 -74 -42 -96 -72c-14 -18 -20 -35 -20 -49c0 -9 3 -17 8 -23c19 -21 58 -25 99 -25s86 4 137 25
c37 15 74 42 96 72c14 18 20 36 20 50c0 9 -3 16 -8 22c-19 21 -58 25 -99 25zM1002 841c0 16 -16 21 -34 21c-45 0 -86 -32 -107 -60c-11 -14 -18 -28 -18 -39c0 -16 17 -21 35 -21c45 0 85 32 106 60c11 14 18 28 18 39zM832 682c-38 0 -72 9 -72 43c0 22 14 49 35 77
c25 33 59 66 100 89c43 24 83 31 117 31c38 0 73 -9 73 -43c0 -22 -14 -49 -35 -77c-25 -33 -59 -66 -100 -89c-43 -24 -84 -31 -118 -31z" />
    <glyph glyph-name="m" unicode="m" horiz-adv-x="1015" 
d="M1174 595c62 0 109 -20 109 -73c0 -47 -35 -109 -80 -169l-265 -353h-99l265 353c30 40 55 81 55 113c0 25 -21 39 -53 39c-45 0 -97 -9 -153 -39c-52 -28 -96 -71 -127 -113l-266 -353h-98l265 353c30 40 55 81 55 113c0 25 -21 39 -53 39c-45 0 -97 -9 -153 -39
c-52 -28 -97 -70 -128 -112l-265 -354h-99l439 585h99l-46 -61c71 46 156 71 220 71c62 0 110 -20 110 -73c0 -12 -2 -24 -6 -37c21 17 42 33 66 47c73 45 148 63 208 63z" />
    <glyph glyph-name="ograve" unicode="&#xf2;" horiz-adv-x="700" 
d="M860 892h99l-11 -180h-74zM833 437c0 51 -46 68 -104 68c-54 0 -120 -15 -186 -55c-70 -42 -126 -101 -169 -158c-39 -52 -68 -103 -68 -144c0 -51 46 -68 104 -68c54 0 120 15 186 55c70 42 125 100 168 157c39 52 69 104 69 145zM342 -10c-88 0 -160 23 -160 101
c0 56 39 129 93 201c62 82 144 165 245 224c99 58 196 79 276 79c88 0 161 -23 161 -101c0 -56 -40 -130 -94 -202c-62 -82 -143 -164 -244 -223c-99 -58 -197 -79 -277 -79z" />
    <glyph glyph-name="Cacute" unicode="&#x106;" horiz-adv-x="945" 
d="M378 194c0 -84 75 -114 172 -114c91 0 204 28 315 96c51 31 98 67 140 106l70 -32c-56 -52 -118 -99 -187 -140c-144 -86 -288 -120 -406 -120c-127 0 -228 37 -228 148c0 88 62 201 146 312c93 124 215 249 367 340c144 86 287 120 405 120c127 0 229 -37 229 -148
c0 -34 -9 -72 -26 -112l-118 -32c13 31 20 61 20 88c0 84 -75 114 -172 114c-91 0 -204 -28 -315 -96c-121 -74 -216 -175 -290 -274c-68 -91 -122 -184 -122 -256zM1231 1147h99l-284 -180h-74z" />
    <glyph glyph-name="six" unicode="6" horiz-adv-x="686" 
d="M516 472c75 56 184 90 256 90c85 0 159 -21 159 -98c0 -53 -36 -121 -87 -188c-58 -78 -137 -157 -233 -212s-191 -74 -269 -74c-85 0 -159 21 -159 98c0 53 36 121 87 188l244 325c62 83 144 168 246 229c97 58 193 80 272 80c85 0 154 -24 154 -99
c0 -24 -6 -51 -18 -79l-118 -30c8 19 12 36 12 52c0 47 -41 66 -97 66l-193 -258l193 258c-53 0 -118 -17 -182 -57c-71 -44 -126 -104 -170 -162zM308 145c0 -50 46 -65 102 -65c52 0 114 14 177 51c65 38 118 92 158 145c35 47 62 95 62 132c0 50 -47 64 -103 64
c-52 0 -114 -14 -177 -51c-65 -38 -118 -92 -158 -145c-35 -47 -61 -94 -61 -131z" />
    <glyph glyph-name="egrave" unicode="&#xe8;" horiz-adv-x="693" 
d="M306 148c0 -51 46 -68 104 -68c52 0 112 10 177 44c21 11 42 25 61 40l53 -47c-28 -22 -58 -42 -90 -59c-98 -52 -190 -68 -269 -68c-88 0 -160 23 -160 101c0 56 39 129 93 201c62 82 144 165 245 224c99 58 196 79 276 79c88 0 161 -23 161 -101
c0 -56 -40 -130 -94 -202l-33 -44h-487c-22 -36 -37 -71 -37 -100zM860 892h99l-11 -180h-74zM833 437c0 51 -46 68 -104 68c-54 0 -120 -15 -186 -55c-52 -31 -95 -71 -132 -113h384c22 36 38 71 38 100z" />
    <glyph glyph-name="cwm" horiz-adv-x="0" 
d="M753 945c22 0 44 -18 44 -45c0 -10 -3 -19 -9 -27l-675 -900c-7 -10 -20 -18 -36 -18c-22 0 -44 18 -44 45c0 10 3 19 9 27l675 900c7 10 20 18 36 18z" />
    <glyph glyph-name="hyphen" unicode="-" horiz-adv-x="406" 
d="M242 248l67 89h294l-67 -89h-294z" />
    <glyph glyph-name="scaron" unicode="&#x161;" horiz-adv-x="560" 
d="M248 122c0 -38 52 -42 92 -42c36 0 76 2 121 21c33 14 63 40 83 66c11 15 17 28 17 39c0 14 -9 25 -26 28l-106 32c-45 9 -73 35 -73 73c0 24 10 51 33 82c37 49 88 99 149 131c69 36 132 43 188 43c55 0 104 -10 119 -45c3 -7 5 -15 5 -23c0 -18 -7 -39 -19 -61
l-113 -22c5 9 7 18 7 26c0 30 -34 35 -66 35c-29 0 -61 -3 -97 -21c-30 -15 -56 -39 -74 -63c-9 -12 -13 -23 -13 -32c0 -18 15 -30 36 -34l107 -31c40 -8 62 -32 62 -67c0 -25 -12 -56 -37 -90c-39 -52 -94 -103 -158 -134c-79 -38 -150 -43 -213 -43c-62 0 -119 9 -141 46
c-5 8 -7 18 -7 29c0 18 6 39 17 61l114 22c-5 -10 -7 -18 -7 -26zM1051 892h73l-254 -180h-100l16 180h73l7 -119z" />
    <glyph glyph-name="Zacute" unicode="&#x179;" horiz-adv-x="714" 
d="M642 810l68 90h644l-75 -100l-1016 -710h483l-67 -90h-644l75 100l1016 710h-484zM1098 1147h99l-284 -180h-74z" />
    <glyph glyph-name="igrave" unicode="&#xec;" horiz-adv-x="266" 
d="M84 0l438 585h99l-439 -585h-98zM643 892h99l-11 -180h-74z" />
    <glyph glyph-name="acircumflex" unicode="&#xe2;" horiz-adv-x="658" 
d="M761 595c77 0 151 -15 151 -86c0 -40 -26 -93 -65 -145l-273 -364h-99l33 43c-68 -39 -142 -53 -200 -53c-68 0 -131 9 -156 49c-6 9 -8 20 -8 32c0 30 16 68 45 106c41 54 103 107 171 139c85 40 160 48 228 48c58 0 109 -11 120 -53l40 53c24 31 40 64 40 88
c0 44 -47 53 -94 53c-43 0 -93 -9 -146 -37c-22 -11 -42 -25 -60 -41l-64 39c31 26 65 50 101 69c86 46 167 60 236 60zM521 274c-41 0 -86 -4 -137 -25c-37 -15 -74 -42 -96 -72c-14 -18 -20 -35 -20 -49c0 -9 3 -17 8 -23c19 -21 58 -25 99 -25s86 4 137 25
c37 15 74 42 96 72c14 18 20 36 20 50c0 9 -3 16 -8 22c-19 21 -58 25 -99 25zM944 831l-185 -119h-73l254 180h100l-16 -180h-73z" />
    <glyph glyph-name="M" unicode="M" horiz-adv-x="1085" 
d="M98 0l675 900h100l-240 -747l929 747h100l-675 -900h-99l449 598l-745 -598h-100l222 689l-517 -689h-99z" />
    <glyph glyph-name="N" unicode="N" horiz-adv-x="875" 
d="M98 0l675 900h100l-89 -759l569 759h99l-675 -900h-100l89 759l-569 -759h-99z" />
    <glyph glyph-name="at" unicode="@" horiz-adv-x="938" 
d="M357 194c0 -84 75 -114 172 -114c84 0 175 7 279 48c29 12 59 27 86 45l28 -63c-29 -18 -60 -35 -91 -48c-138 -60 -259 -72 -369 -72c-127 0 -229 37 -229 148c0 88 63 201 147 312c93 124 214 249 366 340c144 86 288 120 406 120c127 0 228 -37 228 -148
c0 -88 -63 -201 -147 -312c-46 -62 -110 -124 -187 -166c-81 -44 -157 -59 -222 -59l67 90c38 0 84 9 132 35c46 25 83 63 111 100c68 91 122 184 122 256c0 84 -75 114 -172 114c-91 0 -204 -28 -315 -96c-121 -74 -217 -175 -291 -274c-68 -91 -121 -184 -121 -256z
M885 585c-90 0 -170 -81 -211 -135c-26 -34 -46 -70 -46 -97s22 -38 54 -38c90 0 170 81 211 135c26 34 47 70 47 97s-23 38 -55 38zM615 225c-62 0 -112 18 -112 72c0 43 31 98 72 153c45 61 105 122 179 166c71 42 140 59 198 59c42 0 70 -17 74 -48l36 48h99l-337 -450
h-99l36 48c-51 -31 -104 -48 -146 -48z" />
    <glyph glyph-name="idieresis" unicode="&#xef;" horiz-adv-x="266" 
d="M84 0l438 585h99l-439 -585h-98zM548 713c-20 0 -37 5 -37 23c0 12 8 28 20 44c23 31 67 67 117 67c20 0 37 -5 37 -23c0 -12 -8 -28 -20 -44c-23 -31 -67 -67 -117 -67zM800 713c-20 0 -37 5 -37 23c0 12 8 28 20 44c23 31 67 67 117 67c20 0 37 -5 37 -23
c0 -12 -8 -28 -20 -44c-23 -31 -67 -67 -117 -67z" />
    <glyph glyph-name="colon" unicode=":" horiz-adv-x="323" 
d="M162 0c-19 0 -36 5 -36 22c0 12 8 27 19 42c22 29 65 65 113 65c19 0 36 -5 36 -22c0 -12 -9 -28 -20 -43c-22 -29 -64 -64 -112 -64zM504 456c-19 0 -36 5 -36 22c0 12 9 28 20 43c22 29 64 64 112 64c19 0 36 -5 36 -22c0 -12 -9 -27 -20 -42c-22 -29 -64 -65 -112 -65
z" />
    <glyph glyph-name="l" unicode="l" horiz-adv-x="267" 
d="M84 0l712 950h100l-713 -950h-99z" />
    <glyph glyph-name="Iacute" unicode="&#xcd;" horiz-adv-x="323" 
d="M112 0l675 900h99l-675 -900h-99zM902 1147h100l-285 -180h-73z" />
    <glyph glyph-name="two" unicode="2" 
d="M1008 910c80 0 154 -18 154 -91c0 -45 -30 -103 -74 -161c-130 -173 -354 -314 -570 -433c-83 -45 -165 -90 -248 -135h392l-67 -90h-539l68 90l414 225c171 95 348 206 451 343c28 38 48 75 48 104c0 46 -46 58 -97 58c-46 0 -100 -10 -157 -42c-27 -15 -53 -34 -75 -54
l-71 31c36 34 77 64 122 89c90 50 176 66 249 66z" />
    <glyph glyph-name="zero" unicode="0" horiz-adv-x="728" 
d="M979 820c-61 0 -141 -29 -208 -83c-104 -82 -183 -189 -257 -287s-154 -205 -174 -287c-2 -7 -3 -15 -3 -21c0 -40 35 -62 87 -62c61 0 141 29 208 83c104 82 184 189 258 287s153 205 173 287c2 7 3 15 3 21c0 40 -35 62 -87 62zM1046 910c82 0 147 -25 147 -89
c0 -4 1 -9 0 -14c-13 -103 -112 -233 -205 -357c-129 -172 -337 -460 -632 -460c-82 0 -146 25 -146 89c0 4 -1 9 0 14c13 103 111 233 204 357s192 254 333 357c101 74 211 103 299 103z" />
    <glyph glyph-name="g" unicode="g" horiz-adv-x="714" 
d="M789 595c70 0 118 -25 118 -84v-10l63 84h99l-465 -619c-57 -76 -133 -152 -227 -204c-96 -54 -189 -72 -267 -72c-85 0 -161 20 -161 97c0 18 4 38 12 59l119 35c-5 -13 -7 -26 -7 -37c0 -50 49 -64 105 -64c51 0 112 12 175 48s115 87 153 138l96 128
c-8 -6 -17 -12 -25 -17c-81 -53 -167 -77 -234 -77c-85 0 -157 23 -157 99c0 56 40 128 93 199c60 81 141 162 240 220c97 56 191 77 270 77zM821 440c0 49 -43 65 -99 65c-52 0 -116 -16 -180 -54c-68 -41 -122 -97 -164 -153c-38 -51 -67 -103 -67 -143
c0 -49 43 -65 99 -65c52 0 116 16 180 54c69 41 122 98 164 154c38 51 67 102 67 142z" />
    <glyph glyph-name="Tcedilla" unicode="&#x162;" horiz-adv-x="644" 
d="M285 -154c0 25 -31 28 -57 28h-74l123 126h-5l608 810h-268l68 90h634l-67 -90h-268l-607 -810h-21l-54 -54c43 -2 88 -13 88 -55c0 -23 -14 -51 -36 -81c-29 -39 -72 -78 -120 -102c-56 -28 -107 -35 -152 -35c-50 0 -103 8 -103 55c0 12 3 26 10 40l93 22
c-3 -6 -4 -11 -4 -16c0 -24 30 -29 58 -29c24 0 50 3 79 17c23 11 46 29 60 48c10 13 15 26 15 36z" />
    <glyph glyph-name="Tcaron" unicode="&#x164;" horiz-adv-x="644" 
d="M612 810l68 90h634l-67 -90h-268l-607 -810h-100l608 810h-268zM1093 1147h73l-254 -180h-100l16 180h73l7 -118z" />
    <glyph glyph-name="hungarumlaut" unicode="&#x2dd;" horiz-adv-x="294" 
d="M524 720l248 180h100l-274 -180h-74zM982 900h100l-274 -180h-74z" />
    <glyph glyph-name="Lacute" unicode="&#x139;" horiz-adv-x="644" 
d="M98 0l675 900h99l-608 -810h406l-68 -90h-504zM888 1147h100l-285 -180h-73z" />
    <glyph glyph-name="quotesinglbase" unicode="&#x201a;" horiz-adv-x="357" 
d="M247 112h142l-354 -292h-106z" />
    <glyph glyph-name="grave" unicode="`" horiz-adv-x="280" 
d="M699 900h99l-11 -180h-74z" />
    <glyph glyph-name="otilde" unicode="&#xf5;" horiz-adv-x="700" 
d="M865 763c-38 0 -72 -22 -90 -46h-80c26 35 62 69 105 93c45 25 89 33 125 33c44 0 57 -33 101 -33c38 0 73 22 91 46h79c-26 -35 -62 -69 -105 -93c-45 -25 -89 -33 -125 -33c-44 0 -57 33 -101 33zM833 437c0 51 -46 68 -104 68c-54 0 -120 -15 -186 -55
c-70 -42 -126 -101 -169 -158c-39 -52 -68 -103 -68 -144c0 -51 46 -68 104 -68c54 0 120 15 186 55c70 42 125 100 168 157c39 52 69 104 69 145zM342 -10c-88 0 -160 23 -160 101c0 56 39 129 93 201c62 82 144 165 245 224c99 58 196 79 276 79c88 0 161 -23 161 -101
c0 -56 -40 -130 -94 -202c-62 -82 -143 -164 -244 -223c-99 -58 -197 -79 -277 -79z" />
    <glyph glyph-name="uhungarumlaut" unicode="&#x171;" 
d="M304 132c0 -41 39 -52 85 -52c42 0 92 10 143 39s93 72 124 113l265 353h99l-439 -585h-99l42 57c-68 -44 -144 -67 -202 -67c-75 0 -143 17 -143 85c0 44 30 101 72 157l265 353h99l-265 -353c-27 -36 -46 -72 -46 -100zM706 712l248 180h100l-274 -180h-74zM1164 892
h100l-274 -180h-74z" />
    <glyph glyph-name="dcroat" unicode="&#x111;" horiz-adv-x="735" 
d="M789 595c69 0 117 -26 117 -84c0 -4 -1 -8 -1 -12l162 216h-188l68 90h188l108 145h99l-108 -145h91l-68 -90h-91l-536 -715h-99l64 86c-8 -6 -16 -11 -25 -17c-82 -53 -166 -79 -234 -79c-85 0 -156 24 -156 99c0 57 40 130 95 203c61 82 143 165 243 224
c97 57 192 79 271 79zM820 440c0 48 -42 65 -98 65c-52 0 -117 -16 -181 -55c-69 -42 -124 -101 -167 -158c-39 -52 -69 -106 -69 -147c0 -48 42 -65 98 -65c52 0 117 16 181 55c69 42 124 101 166 158c39 52 70 106 70 147z" />
    <glyph glyph-name="K" unicode="K" horiz-adv-x="742" 
d="M773 900h99l-338 -450c99 65 200 129 299 194l394 256h181l-595 -387l-80 -513h-100l69 441l-339 -220l-166 -221h-99z" />
    <glyph glyph-name="zdotaccent" unicode="&#x17c;" horiz-adv-x="518" 
d="M406 495l68 90h448l-75 -100l-579 -395h282l-67 -90h-448l75 100l579 395h-283zM800 713c-20 0 -37 5 -37 23c0 12 8 28 20 44c23 31 67 67 117 67c20 0 37 -5 37 -23c0 -12 -8 -28 -20 -44c-23 -31 -67 -67 -117 -67z" />
    <glyph glyph-name="period" unicode="." horiz-adv-x="323" 
d="M162 0c-19 0 -36 5 -36 22c0 12 8 27 19 42c22 29 65 65 113 65c19 0 36 -5 36 -22c0 -12 -9 -28 -20 -43c-22 -29 -64 -64 -112 -64z" />
    <glyph glyph-name="k" unicode="k" horiz-adv-x="609" 
d="M804 950h98l-443 -592l394 227h181l-419 -241l-20 -344h-99l16 285l-190 -110l-132 -175h-99z" />
    <glyph glyph-name="W" unicode="W" horiz-adv-x="1092" 
d="M689 900h107l-277 -690l361 329l145 361h107l-83 -208l228 208h140l-449 -408l-113 -282l758 690h140l-989 -900h-100l136 339l-372 -339h-100z" />
    <glyph glyph-name="X" unicode="X" horiz-adv-x="693" 
d="M704 900h101l-42 -320l417 320h158l-593 -456l-59 -444h-100l47 359l-468 -359h-158l644 494z" />
    <glyph glyph-name="ogonek" unicode="&#x2db;" horiz-adv-x="280" 
d="M-105 -327c-50 0 -103 8 -103 55c0 23 14 52 36 82c50 67 146 103 225 154l177 108l-29 -72l-177 -108c-42 -27 -91 -47 -117 -82c-10 -13 -16 -27 -16 -37c0 -25 32 -28 58 -28c24 0 50 3 79 17c8 4 16 8 23 13l23 -51c-9 -6 -18 -11 -27 -16c-56 -28 -107 -35 -152 -35
z" />
    <glyph glyph-name="agrave" unicode="&#xe0;" horiz-adv-x="658" 
d="M761 595c77 0 151 -15 151 -86c0 -40 -26 -93 -65 -145l-273 -364h-99l33 43c-68 -39 -142 -53 -200 -53c-68 0 -131 9 -156 49c-6 9 -8 20 -8 32c0 30 16 68 45 106c41 54 103 107 171 139c85 40 160 48 228 48c58 0 109 -11 120 -53l40 53c24 31 40 64 40 88
c0 44 -47 53 -94 53c-43 0 -93 -9 -146 -37c-22 -11 -42 -25 -60 -41l-64 39c31 26 65 50 101 69c86 46 167 60 236 60zM825 892h99l-11 -180h-74zM521 274c-41 0 -86 -4 -137 -25c-37 -15 -74 -42 -96 -72c-14 -18 -20 -35 -20 -49c0 -9 3 -17 8 -23c19 -21 58 -25 99 -25
s86 4 137 25c37 15 74 42 96 72c14 18 20 36 20 50c0 9 -3 16 -8 22c-19 21 -58 25 -99 25z" />
    <glyph glyph-name="aogonek" unicode="&#x105;" horiz-adv-x="658" 
d="M761 595c77 0 151 -15 151 -86c0 -40 -26 -93 -65 -145l-266 -355l-4 -9l-177 -108c-42 -27 -91 -47 -117 -82c-10 -13 -16 -27 -16 -37c0 -25 32 -28 58 -28c24 0 50 3 79 17c8 4 16 8 23 13l23 -51c-9 -6 -18 -11 -27 -16c-56 -28 -107 -35 -152 -35
c-50 0 -103 8 -103 55c0 23 13 52 35 82c50 67 147 103 226 154l59 36h-13l33 43c-68 -39 -142 -53 -200 -53c-68 0 -131 9 -156 49c-6 9 -8 20 -8 32c0 30 16 68 45 106c41 54 103 107 171 139c85 40 160 48 228 48c58 0 109 -11 120 -53l40 53c24 31 40 64 40 88
c0 44 -47 53 -94 53c-43 0 -93 -9 -146 -37c-22 -11 -42 -25 -60 -41l-64 39c31 26 65 50 101 69c86 46 167 60 236 60zM521 274c-41 0 -86 -4 -137 -25c-37 -15 -74 -42 -96 -72c-14 -18 -20 -35 -20 -49c0 -9 3 -17 8 -23c19 -21 58 -25 99 -25s86 4 137 25
c37 15 74 42 96 72c14 18 20 36 20 50c0 9 -3 16 -8 22c-19 21 -58 25 -99 25z" />
    <glyph glyph-name="quotedbl" unicode="&#x22;" horiz-adv-x="413" 
d="M717 900h99l-219 -292h-99zM1046 900l-219 -292h-99l219 292h99z" />
    <glyph glyph-name="t" unicode="t" horiz-adv-x="378" 
d="M383 495l67 90h128l274 365h99l-274 -365h128l-67 -90h-128l-372 -495h-98l371 495h-128z" />
    <glyph glyph-name="question" unicode="?" horiz-adv-x="616" 
d="M976 910c75 0 140 -19 140 -86c0 -47 -32 -106 -77 -166c-52 -69 -121 -138 -206 -187c-64 -37 -126 -56 -183 -63l-109 -144h-99l174 231h49c42 0 93 11 145 42c54 32 97 77 130 121c29 39 51 78 51 109c0 40 -36 53 -82 53c-42 0 -93 -11 -145 -42
c-25 -15 -48 -33 -69 -52l-73 29c35 33 75 64 119 89c85 48 166 66 235 66zM294 0c-19 0 -36 5 -36 22c0 12 9 27 20 42c22 29 65 65 113 65c19 0 35 -5 35 -22c0 -12 -8 -28 -19 -43c-22 -29 -65 -64 -113 -64z" />
    <glyph glyph-name="Adieresis" unicode="&#xc4;" horiz-adv-x="777" 
d="M14 0l999 900h100l-350 -900h-106l85 218h-349l-242 -218h-137zM803 969c-20 0 -37 5 -37 23c0 12 9 28 21 44c23 31 67 66 117 66c20 0 37 -4 37 -22c0 -12 -9 -28 -21 -44c-23 -31 -67 -67 -117 -67zM1055 969c-20 0 -37 5 -37 23c0 12 9 28 21 44c23 31 67 66 117 66
c20 0 37 -4 37 -22c0 -12 -9 -28 -21 -44c-23 -31 -67 -67 -117 -67zM777 308l153 393l-437 -393h284z" />
    <glyph glyph-name="five" unicode="5" horiz-adv-x="672" 
d="M289 145c0 -49 44 -65 100 -65c52 0 116 16 180 54c68 41 122 98 164 154c40 53 72 107 72 150c0 39 -32 57 -80 57c-76 0 -182 -51 -257 -125h-99c132 176 265 354 397 530h475l-67 -90h-376l-232 -309c75 51 159 84 226 84c78 0 137 -24 137 -91
c0 -58 -42 -133 -97 -206c-60 -81 -141 -163 -240 -221c-97 -56 -191 -77 -270 -77c-85 0 -157 23 -157 99c0 14 3 28 7 43l122 42c-3 -10 -5 -20 -5 -29z" />
    <glyph glyph-name="Aring" unicode="&#xc5;" horiz-adv-x="777" 
d="M14 0l999 900h100l-350 -900h-106l85 218h-349l-242 -218h-137zM777 308l153 393l-437 -393h284zM1075 1097c0 16 -16 20 -34 20c-45 0 -86 -32 -107 -60c-11 -14 -18 -28 -18 -39c0 -16 17 -21 35 -21c45 0 86 32 107 60c11 14 17 29 17 40zM906 937c-38 0 -73 9 -73 43
c0 22 14 49 35 77c25 33 59 66 100 89c43 24 84 31 118 31c38 0 73 -9 73 -43c0 -22 -14 -49 -35 -77c-25 -33 -59 -65 -100 -88c-43 -24 -84 -32 -118 -32z" />
    <glyph glyph-name="z" unicode="z" horiz-adv-x="518" 
d="M406 495l68 90h448l-75 -100l-579 -395h282l-67 -90h-448l75 100l579 395h-283z" />
    <glyph glyph-name="Ccedilla" unicode="&#xc7;" horiz-adv-x="945" 
d="M378 194c0 -84 75 -114 172 -114c91 0 204 28 315 96c51 31 98 67 140 106l70 -32c-56 -52 -118 -99 -187 -140c-134 -80 -267 -114 -379 -119l-44 -45c43 -2 88 -13 88 -55c0 -23 -14 -51 -36 -81c-29 -39 -72 -78 -120 -102c-56 -28 -107 -35 -152 -35
c-50 0 -103 8 -103 55c0 12 3 26 10 40l93 22c-3 -6 -4 -11 -4 -16c0 -24 30 -29 58 -29c24 0 50 3 79 17c23 11 46 29 60 48c10 13 15 26 15 36c0 25 -31 28 -57 28h-74l115 118c-105 9 -183 48 -183 146c0 88 62 201 146 312c93 124 215 249 367 340
c144 86 287 120 405 120c127 0 229 -37 229 -148c0 -34 -9 -72 -26 -112l-118 -32c13 31 20 61 20 88c0 84 -75 114 -172 114c-91 0 -204 -28 -315 -96c-121 -74 -216 -175 -290 -274c-68 -91 -122 -184 -122 -256z" />
    <glyph glyph-name="Idotaccent" unicode="&#x130;" horiz-adv-x="323" 
d="M112 0l675 900h99l-675 -900h-99zM702 969c-20 0 -37 5 -37 23c0 12 9 28 21 44c23 31 67 66 117 66c20 0 37 -4 37 -22c0 -12 -9 -28 -21 -44c-23 -31 -67 -67 -117 -67z" />
    <glyph glyph-name="sterling" unicode="&#xa3;" horiz-adv-x="672" 
d="M1072 910c67 0 116 -23 116 -80c0 -25 -9 -54 -23 -84l-115 -26c9 19 15 37 15 55c0 29 -24 45 -61 45c-114 0 -217 -117 -268 -185l-105 -140h265l-67 -90h-266l-101 -135c-49 -66 -116 -135 -199 -180h423l-68 -90h-564l67 90c33 0 76 19 114 47c53 40 93 87 128 133
l101 135h-107l68 90h107l105 140c55 73 123 147 212 203c78 49 159 72 223 72z" />
    <glyph glyph-name="eight" unicode="8" horiz-adv-x="700" 
d="M302 143c0 -51 52 -63 108 -63c51 0 110 11 173 45c59 32 109 81 145 129c30 40 51 79 51 110c0 51 -52 63 -108 63c-51 0 -110 -11 -173 -45c-59 -32 -110 -80 -146 -128c-30 -40 -50 -80 -50 -111zM859 495c26 -14 44 -37 44 -74c0 -47 -31 -107 -76 -167
c-55 -73 -131 -146 -221 -195c-96 -52 -187 -69 -264 -69s-142 17 -160 69c-3 9 -5 17 -5 27c0 47 31 108 76 168c75 100 190 199 330 241c-15 11 -25 26 -25 51c0 34 21 79 54 123c49 66 115 132 196 178s159 63 224 63c71 0 133 -18 133 -82c0 -45 -31 -102 -74 -159
c-54 -72 -135 -139 -232 -174zM1040 771c0 37 -33 49 -75 49c-39 0 -86 -11 -134 -39c-50 -30 -89 -71 -120 -112c-27 -37 -48 -74 -48 -103c0 -37 33 -49 75 -49c39 0 86 12 134 40c50 30 89 71 120 112c27 37 48 73 48 102z" />
    <glyph glyph-name="Ntilde" unicode="&#xd1;" horiz-adv-x="875" 
d="M98 0l675 900h100l-89 -759l569 759h99l-675 -900h-100l89 759l-569 -759h-99zM952 1018c-38 0 -72 -22 -90 -46h-79c26 35 62 69 105 93c45 25 88 33 124 33c44 0 58 -33 102 -33c38 0 72 22 90 46h79c-26 -35 -62 -69 -105 -93c-45 -25 -88 -33 -124 -33
c-44 0 -58 33 -102 33z" />
    <glyph glyph-name="Z" unicode="Z" horiz-adv-x="714" 
d="M642 810l68 90h644l-75 -100l-1016 -710h483l-67 -90h-644l75 100l1016 710h-484z" />
    <glyph glyph-name="T" unicode="T" horiz-adv-x="644" 
d="M612 810l68 90h634l-67 -90h-268l-607 -810h-100l608 810h-268z" />
    <glyph glyph-name="parenleft" unicode="(" horiz-adv-x="385" 
d="M95 -296c-19 25 -27 59 -27 97c0 19 3 38 6 58c23 142 113 306 236 471s280 329 470 471c82 61 171 118 255 155l-6 -73c-74 -32 -155 -87 -227 -145c-158 -126 -286 -267 -392 -408s-188 -282 -219 -408c-7 -27 -11 -54 -11 -78c0 -27 5 -50 19 -67z" />
    <glyph glyph-name="Eacute" unicode="&#xc9;" horiz-adv-x="651" 
d="M98 0l675 900h504l-68 -90h-405l-236 -315h356l-68 -90h-355l-237 -315h406l-68 -90h-504zM1091 1147h99l-284 -180h-74z" />
    <glyph glyph-name="zcaron" unicode="&#x17e;" horiz-adv-x="518" 
d="M406 495l68 90h448l-75 -100l-579 -395h282l-67 -90h-448l75 100l579 395h-283zM1030 892h73l-255 -180h-99l16 180h73l7 -119z" />
    <glyph glyph-name="IJ" unicode="&#x132;" horiz-adv-x="847" 
d="M493 -10c-76 0 -138 21 -138 88c0 11 1 22 4 34l123 45c-2 -8 -3 -15 -3 -22c0 -39 33 -55 81 -55c44 0 98 14 151 47c59 36 105 85 141 133l480 640h99l-480 -640c-55 -73 -126 -147 -216 -200c-86 -51 -172 -70 -242 -70zM112 0l675 900h99l-675 -900h-99z" />
    <glyph glyph-name="guilsinglleft" unicode="&#x2039;" horiz-adv-x="385" 
d="M436 292l-114 -292h-154l114 292l325 293h154z" />
    <glyph glyph-name="quotedblbase" unicode="&#x201e;" horiz-adv-x="644" 
d="M-32 -180l321 292h109l-349 -292h-81zM514 112h142l-353 -292h-106z" />
    <glyph glyph-name="abreve" unicode="&#x103;" horiz-adv-x="658" 
d="M761 595c77 0 151 -15 151 -86c0 -40 -26 -93 -65 -145l-273 -364h-99l33 43c-68 -39 -142 -53 -200 -53c-68 0 -131 9 -156 49c-6 9 -8 20 -8 32c0 30 16 68 45 106c41 54 103 107 171 139c85 40 160 48 228 48c58 0 109 -11 120 -53l40 53c24 31 40 64 40 88
c0 44 -47 53 -94 53c-43 0 -93 -9 -146 -37c-22 -11 -42 -25 -60 -41l-64 39c31 26 65 50 101 69c86 46 167 60 236 60zM859 717c-58 0 -121 10 -121 64c0 26 16 60 41 94h79c-11 -15 -17 -30 -17 -42c0 -33 44 -36 78 -36c31 0 65 3 103 20c29 13 57 35 74 58h79
c-34 -45 -83 -89 -139 -117c-65 -32 -125 -41 -177 -41zM521 274c-41 0 -86 -4 -137 -25c-37 -15 -74 -42 -96 -72c-14 -18 -20 -35 -20 -49c0 -9 3 -17 8 -23c19 -21 58 -25 99 -25s86 4 137 25c37 15 74 42 96 72c14 18 20 36 20 50c0 9 -3 16 -8 22c-19 21 -58 25 -99 25
z" />
    <glyph glyph-name="G" unicode="G" horiz-adv-x="1001" 
d="M378 194c0 -84 75 -114 172 -114c88 0 191 18 300 77c102 55 188 137 250 219l22 29h-328l67 90h427l-371 -495h-99l117 156c-31 -24 -64 -46 -98 -66c-127 -74 -252 -100 -355 -100c-127 0 -228 37 -228 148c0 88 62 201 146 312c93 124 215 249 367 340
c144 86 287 120 405 120c127 0 229 -37 229 -148c0 -22 -4 -45 -11 -69l-122 -42c5 19 9 38 9 55c0 84 -75 114 -172 114c-91 0 -204 -28 -315 -96c-121 -74 -216 -175 -290 -274c-68 -91 -122 -184 -122 -256z" />
    <glyph glyph-name="h" unicode="h" horiz-adv-x="637" 
d="M799 595c61 0 107 -20 107 -72c0 -48 -36 -110 -81 -170l-265 -353h-99l265 353c30 40 56 81 56 114c0 25 -20 38 -51 38c-44 0 -96 -9 -150 -39c-52 -28 -95 -70 -126 -112l-265 -354h-99l713 950h98l-318 -425c70 45 153 70 215 70z" />
    <glyph glyph-name="aacute" unicode="&#xe1;" horiz-adv-x="658" 
d="M761 595c77 0 151 -15 151 -86c0 -40 -26 -93 -65 -145l-273 -364h-99l33 43c-68 -39 -142 -53 -200 -53c-68 0 -131 9 -156 49c-6 9 -8 20 -8 32c0 30 16 68 45 106c41 54 103 107 171 139c85 40 160 48 228 48c58 0 109 -11 120 -53l40 53c24 31 40 64 40 88
c0 44 -47 53 -94 53c-43 0 -93 -9 -146 -37c-22 -11 -42 -25 -60 -41l-64 39c31 26 65 50 101 69c86 46 167 60 236 60zM1056 892h99l-284 -180h-74zM521 274c-41 0 -86 -4 -137 -25c-37 -15 -74 -42 -96 -72c-14 -18 -20 -35 -20 -49c0 -9 3 -17 8 -23
c19 -21 58 -25 99 -25s86 4 137 25c37 15 74 42 96 72c14 18 20 36 20 50c0 9 -3 16 -8 22c-19 21 -58 25 -99 25z" />
    <glyph glyph-name="eacute" unicode="&#xe9;" horiz-adv-x="693" 
d="M306 148c0 -51 46 -68 104 -68c52 0 112 10 177 44c21 11 42 25 61 40l53 -47c-28 -22 -58 -42 -90 -59c-98 -52 -190 -68 -269 -68c-88 0 -160 23 -160 101c0 56 39 129 93 201c62 82 144 165 245 224c99 58 196 79 276 79c88 0 161 -23 161 -101
c0 -56 -40 -130 -94 -202l-33 -44h-487c-22 -36 -37 -71 -37 -100zM1091 892h99l-284 -180h-74zM833 437c0 51 -46 68 -104 68c-54 0 -120 -15 -186 -55c-52 -31 -95 -71 -132 -113h384c22 36 38 71 38 100z" />
    <glyph glyph-name="Scaron" unicode="&#x160;" horiz-adv-x="728" 
d="M297 147c0 -57 63 -67 123 -67c55 0 118 6 187 41c60 30 110 80 146 128c23 30 33 58 33 81c0 25 -13 43 -38 52l-142 54c-48 17 -75 52 -75 99c0 35 16 77 50 123c53 71 122 142 209 190c92 50 179 62 253 62c81 0 157 -18 157 -92c0 -22 -7 -47 -19 -73l-119 -31
c8 17 13 33 13 47c0 47 -47 59 -99 59c-48 0 -103 -8 -162 -40c-56 -31 -100 -77 -134 -122c-20 -26 -29 -51 -29 -71c0 -29 17 -50 47 -61l143 -54c43 -15 66 -47 66 -90c0 -38 -18 -83 -55 -133c-55 -73 -131 -148 -222 -195c-102 -53 -195 -64 -277 -64
c-81 0 -153 15 -175 67c-4 10 -6 21 -6 33c0 24 7 50 21 79l116 27c-8 -18 -12 -34 -12 -49zM1131 1147h74l-255 -180h-99l15 180h74l6 -118z" />
    <glyph glyph-name="greater" unicode="&#x3e;" horiz-adv-x="686" 
d="M692 292l-282 180l102 136l388 -248l-101 -135l-760 -248l102 136z" />
    <glyph glyph-name="oe" unicode="&#x153;" horiz-adv-x="1106" 
d="M756 141c0 -43 37 -61 88 -61c47 0 104 11 162 44c19 11 37 23 54 37l57 -44c-27 -22 -57 -42 -88 -59c-91 -51 -179 -68 -253 -68c-81 0 -145 24 -145 95c0 4 1 7 1 11c-14 -10 -27 -18 -42 -27c-93 -56 -185 -79 -261 -79c-81 0 -145 24 -145 95c0 58 42 133 98 207
c61 81 140 164 239 224c93 56 185 79 261 79c81 0 145 -25 145 -96c0 -4 -1 -7 -1 -11c14 10 28 19 43 28c93 56 185 79 261 79c81 0 144 -24 144 -95c0 -58 -42 -134 -98 -208l-33 -44h-446c-25 -39 -41 -76 -41 -107zM803 444c0 43 -37 61 -88 61c-49 0 -110 -17 -170 -55
c-68 -43 -122 -102 -164 -158c-40 -54 -72 -108 -72 -151s36 -61 87 -61c49 0 111 17 171 55c68 43 121 101 163 157c40 54 73 109 73 152zM1250 444c0 43 -37 61 -88 61c-49 0 -110 -17 -170 -55c-50 -32 -92 -72 -127 -113h344c25 39 41 76 41 107z" />
    <glyph glyph-name="Nacute" unicode="&#x143;" horiz-adv-x="875" 
d="M98 0l675 900h100l-89 -759l569 759h99l-675 -900h-100l89 759l-569 -759h-99zM1178 1147h99l-284 -180h-73z" />
    <glyph glyph-name="lacute" unicode="&#x13a;" horiz-adv-x="267" 
d="M84 0l712 950h100l-713 -950h-99zM890 1188h99l-284 -180h-74z" />
    <glyph glyph-name="less" unicode="&#x3c;" horiz-adv-x="686" 
d="M432 292l283 -179l-102 -136l-388 248l101 135l760 248l-102 -136z" />
    <glyph glyph-name="asciicircum" unicode="^" horiz-adv-x="756" 
d="M977 799l-551 -439h-101l677 540h102l-133 -540h-101z" />
    <glyph glyph-name="seven" unicode="7" 
d="M664 810l67 90h539l-75 -100l-902 -800h-146l914 810h-397z" />
    <glyph glyph-name="Ocircumflex" unicode="&#xd4;" horiz-adv-x="980" 
d="M1277 706c0 84 -75 114 -172 114c-91 0 -204 -28 -315 -96c-121 -74 -216 -175 -290 -274c-68 -91 -122 -184 -122 -256c0 -84 75 -114 172 -114c91 0 204 28 315 96c121 74 216 175 290 274c68 91 122 184 122 256zM482 -10c-127 0 -228 37 -228 148
c0 88 62 201 146 312c93 124 215 249 367 340c144 86 287 120 405 120c127 0 229 -37 229 -148c0 -88 -63 -201 -147 -312c-93 -124 -214 -249 -366 -340c-144 -86 -288 -120 -406 -120zM1119 1086l-185 -119h-73l254 180h99l-15 -180h-73z" />
    <glyph glyph-name="F" unicode="F" horiz-adv-x="630" 
d="M98 0l675 900h504l-68 -90h-405l-236 -315h356l-68 -90h-355l-304 -405h-99z" />
    <glyph glyph-name="tilde" unicode="&#x2dc;" horiz-adv-x="294" 
d="M662 770c-38 0 -72 -22 -90 -46h-80c26 35 62 70 105 94c45 25 89 32 125 32c44 0 58 -32 102 -32c38 0 72 22 90 46h79c-26 -35 -62 -69 -105 -93c-45 -25 -88 -33 -124 -33c-44 0 -58 32 -102 32z" />
    <glyph glyph-name="iacute" unicode="&#xed;" horiz-adv-x="266" 
d="M84 0l438 585h99l-439 -585h-98zM874 892h99l-284 -180h-74z" />
    <glyph glyph-name="Otilde" unicode="&#xd5;" horiz-adv-x="980" 
d="M1005 1018c-38 0 -72 -22 -90 -46h-80c26 35 62 69 105 93c45 25 89 33 125 33c44 0 57 -33 101 -33c38 0 73 22 91 46h79c-26 -35 -62 -69 -105 -93c-45 -25 -89 -33 -125 -33c-44 0 -57 33 -101 33zM1277 706c0 84 -75 114 -172 114c-91 0 -204 -28 -315 -96
c-121 -74 -216 -175 -290 -274c-68 -91 -122 -184 -122 -256c0 -84 75 -114 172 -114c91 0 204 28 315 96c121 74 216 175 290 274c68 91 122 184 122 256zM482 -10c-127 0 -228 37 -228 148c0 88 62 201 146 312c93 124 215 249 367 340c144 86 287 120 405 120
c127 0 229 -37 229 -148c0 -88 -63 -201 -147 -312c-93 -124 -214 -249 -366 -340c-144 -86 -288 -120 -406 -120z" />
    <glyph glyph-name="parenright" unicode=")" horiz-adv-x="385" 
d="M-155 -296l6 73c74 32 155 87 227 145c158 126 286 267 392 408s188 282 219 408c7 27 11 54 11 78c0 27 -5 50 -19 67l104 73c19 -25 26 -59 26 -97c0 -19 -2 -38 -5 -58c-23 -142 -113 -306 -236 -471s-280 -329 -470 -471c-82 -61 -171 -118 -255 -155z" />
    <glyph glyph-name="germandbls" unicode="&#xdf;" horiz-adv-x="693" 
d="M1006 774c0 36 -33 46 -73 46c-37 0 -82 -9 -127 -36c-47 -27 -85 -66 -113 -104l-510 -680h-99l510 680c47 63 110 126 188 170c79 44 154 60 218 60c70 0 131 -17 131 -80c0 -42 -29 -96 -69 -150c-47 -62 -106 -125 -182 -172c16 -14 27 -32 27 -60
c0 -51 -36 -118 -85 -183c-54 -73 -122 -146 -210 -203c-75 -48 -153 -72 -215 -72c-69 0 -120 23 -120 82c0 17 3 35 10 54l120 37c-4 -13 -7 -25 -7 -36c0 -31 26 -47 65 -47c36 0 82 18 124 48c56 40 98 89 134 137c34 45 59 91 59 126c0 44 -40 59 -91 59h-60l68 90h59
c87 0 166 88 205 140c25 33 43 68 43 94z" />
    <glyph glyph-name="a" unicode="a" horiz-adv-x="658" 
d="M761 595c77 0 151 -15 151 -86c0 -40 -26 -93 -65 -145l-273 -364h-99l33 43c-68 -39 -142 -53 -200 -53c-68 0 -131 9 -156 49c-6 9 -8 20 -8 32c0 30 16 68 45 106c41 54 103 107 171 139c85 40 160 48 228 48c58 0 109 -11 120 -53l40 53c24 31 40 64 40 88
c0 44 -47 53 -94 53c-43 0 -93 -9 -146 -37c-22 -11 -42 -25 -60 -41l-64 39c31 26 65 50 101 69c86 46 167 60 236 60zM521 274c-41 0 -86 -4 -137 -25c-37 -15 -74 -42 -96 -72c-14 -18 -20 -35 -20 -49c0 -9 3 -17 8 -23c19 -21 58 -25 99 -25s86 4 137 25
c37 15 74 42 96 72c14 18 20 36 20 50c0 9 -3 16 -8 22c-19 21 -58 25 -99 25z" />
    <glyph glyph-name="scedilla" unicode="&#x15f;" horiz-adv-x="560" 
d="M248 122c0 -38 52 -42 92 -42c36 0 76 2 121 21c33 14 63 40 83 66c11 15 17 28 17 39c0 14 -9 25 -26 28l-106 32c-45 9 -73 35 -73 73c0 24 10 51 33 82c37 49 88 99 149 131c69 36 132 43 188 43c55 0 104 -10 119 -45c3 -7 5 -15 5 -23c0 -18 -7 -39 -19 -61
l-113 -22c5 9 7 18 7 26c0 30 -34 35 -66 35c-29 0 -61 -3 -97 -21c-30 -15 -56 -39 -74 -63c-9 -12 -13 -23 -13 -32c0 -18 15 -30 36 -34l107 -31c40 -8 62 -32 62 -67c0 -25 -12 -56 -37 -90c-39 -52 -94 -103 -158 -134c-68 -33 -130 -41 -186 -43l-44 -44
c43 -2 88 -13 88 -55c0 -23 -14 -51 -36 -81c-29 -39 -72 -78 -120 -102c-56 -28 -107 -35 -152 -35c-50 0 -103 8 -103 55c0 12 3 26 10 40l93 22c-3 -6 -4 -11 -4 -16c0 -24 30 -29 58 -29c24 0 50 3 79 17c23 11 46 29 60 48c10 13 15 26 15 36c0 25 -31 28 -57 28h-74
l115 118c-43 4 -79 16 -96 44c-5 8 -7 18 -7 29c0 18 6 39 17 61l114 22c-5 -10 -7 -18 -7 -26z" />
    <glyph glyph-name="ugrave" unicode="&#xf9;" 
d="M304 132c0 -41 39 -52 85 -52c42 0 92 10 143 39s93 72 124 113l265 353h99l-439 -585h-99l42 57c-68 -44 -144 -67 -202 -67c-75 0 -143 17 -143 85c0 44 30 101 72 157l265 353h99l-265 -353c-27 -36 -46 -72 -46 -100zM839 892h99l-11 -180h-74z" />
    <glyph glyph-name="uacute" unicode="&#xfa;" 
d="M304 132c0 -41 39 -52 85 -52c42 0 92 10 143 39s93 72 124 113l265 353h99l-439 -585h-99l42 57c-68 -44 -144 -67 -202 -67c-75 0 -143 17 -143 85c0 44 30 101 72 157l265 353h99l-265 -353c-27 -36 -46 -72 -46 -100zM1070 892h99l-284 -180h-74z" />
    <glyph glyph-name="Ncaron" unicode="&#x147;" horiz-adv-x="875" 
d="M98 0l675 900h100l-89 -759l569 759h99l-675 -900h-100l89 759l-569 -759h-99zM1208 1147h74l-255 -180h-99l15 180h74l6 -118z" />
    <glyph glyph-name="one" unicode="1" horiz-adv-x="476" 
d="M224 0l552 737l-269 -135l123 163l267 135h100l-675 -900h-98z" />
    <glyph glyph-name="f" unicode="f" horiz-adv-x="413" 
d="M411 495l67 90h111l160 214c33 44 76 87 129 119c51 30 102 42 144 42c37 0 68 -9 78 -33l-120 -75c0 12 -11 18 -26 18c-45 0 -86 -44 -106 -71l-160 -214h110l-67 -90h-111l-371 -495h-99l371 495h-110z" />
    <glyph glyph-name="Ugrave" unicode="&#xd9;" horiz-adv-x="832" 
d="M352 156c0 -60 58 -76 124 -76c61 0 133 15 208 58c75 42 136 103 181 163l449 599h99l-449 -599c-64 -85 -152 -171 -257 -230c-108 -61 -212 -81 -299 -81c-96 0 -181 23 -181 109c0 57 39 130 93 202l449 599h99l-449 -599c-39 -52 -67 -104 -67 -145zM926 1147h99
l-12 -180h-73z" />
    <glyph glyph-name="macron" unicode="&#xaf;" horiz-adv-x="294" 
d="M536 748l60 79h343l-60 -79h-343z" />
    <glyph glyph-name="dash" horiz-adv-x="441" 
d="M242 248l67 89h329l-67 -89h-329z" />
    <glyph glyph-name="thorn" unicode="&#xfe;" horiz-adv-x="714" 
d="M364 -10c-69 0 -118 26 -118 84c0 4 1 8 1 12l-289 -386h-99l900 1200h99l-301 -401c8 6 17 11 26 17c82 53 166 79 234 79c85 0 156 -24 156 -99c0 -57 -41 -131 -96 -204c-61 -82 -142 -164 -242 -223c-97 -57 -192 -79 -271 -79zM848 440c0 48 -42 65 -98 65
c-52 0 -117 -16 -181 -55c-69 -42 -124 -101 -167 -158c-39 -52 -69 -106 -69 -147c0 -48 42 -65 98 -65c52 0 117 16 181 55c69 42 123 100 166 157c39 52 70 107 70 148z" />
    <glyph glyph-name="space" unicode=" " horiz-adv-x="419" 
 />
    </font>
</defs>
</svg>
